<svg xmlns="http://www.w3.org/2000/svg" xmlns:xlink="http://www.w3.org/1999/xlink" contentStyleType="text/css" data-diagram-type="DESCRIPTION" height="738px" preserveAspectRatio="none" style="width:2722px;height:738px;background:#FFFFFF;" version="1.1" viewBox="0 0 2722 738" width="2722px" zoomAndPan="magnify"><?plantuml 1.2026.6?><defs/><g><!--cluster Runner--><g class="cluster" data-qualified-name="Runner" data-source-line="11" id="ent0001"><path d="M893.33,6 L1048.1249,6 A3.75,3.75 0 0 1 1050.6249,8.5 L1057.6249,28.2969 L1564.33,28.2969 A2.5,2.5 0 0 1 1566.83,30.7969 L1566.83,107.09 A2.5,2.5 0 0 1 1564.33,109.59 L893.33,109.59 A2.5,2.5 0 0 1 890.83,107.09 L890.83,8.5 A2.5,2.5 0 0 1 893.33,6" fill="none" style="stroke:#000000;stroke-width:1.5;"/><line style="stroke:#000000;stroke-width:1.5;" x1="890.83" x2="1057.6249" y1="28.2969" y2="28.2969"/><text fill="#000000" font-family="sans-serif" font-size="14" font-weight="700" lengthAdjust="spacing" textLength="153.7949" x="894.83" y="20.9951">compose_runner.sh</text></g><!--cluster Files--><g class="cluster" data-qualified-name="Files" data-source-line="17" id="ent0005"><path d="M198.33,142.59 L313.6565,142.59 A3.75,3.75 0 0 1 316.1565,145.09 L323.1565,164.8869 L1895.33,164.8869 A2.5,2.5 0 0 1 1897.83,167.3869 L1897.83,243.68 A2.5,2.5 0 0 1 1895.33,246.18 L198.33,246.18 A2.5,2.5 0 0 1 195.83,243.68 L195.83,145.09 A2.5,2.5 0 0 1 198.33,142.59" fill="none" style="stroke:#000000;stroke-width:1.5;"/><line style="stroke:#000000;stroke-width:1.5;" x1="195.83" x2="323.1565" y1="164.8869" y2="164.8869"/><text fill="#000000" font-family="sans-serif" font-size="14" font-weight="700" lengthAdjust="spacing" textLength="114.3265" x="199.83" y="157.5851">compose &#47112;&#51060;&#50612;</text></g><!--cluster Secrets--><g class="cluster" data-qualified-name="Secrets" data-source-line="26" id="ent0012"><path d="M1924.33,150.74 L2084.8398,150.74 A3.75,3.75 0 0 1 2087.3398,153.24 L2094.3398,173.0369 L2705.33,173.0369 A2.5,2.5 0 0 1 2707.83,175.5369 L2707.83,235.54 A2.5,2.5 0 0 1 2705.33,238.04 L1924.33,238.04 A2.5,2.5 0 0 1 1921.83,235.54 L1921.83,153.24 A2.5,2.5 0 0 1 1924.33,150.74" fill="none" style="stroke:#000000;stroke-width:1.5;"/><line style="stroke:#000000;stroke-width:1.5;" x1="1921.83" x2="2094.3398" y1="173.0369" y2="173.0369"/><text fill="#000000" font-family="sans-serif" font-size="14" font-weight="700" lengthAdjust="spacing" textLength="159.5098" x="1925.83" y="165.7351">Docker Secrets (txt)</text></g><!--cluster Stack--><g class="cluster" data-qualified-name="Stack" data-source-line="33" id="ent0017"><path d="M1568.33,303.18 L1707.4,303.18 A3.75,3.75 0 0 1 1709.9,305.68 L1716.9,325.4769 L1976.33,325.4769 A2.5,2.5 0 0 1 1978.83,327.9769 L1978.83,721.06 A2.5,2.5 0 0 1 1976.33,723.56 L1568.33,723.56 A2.5,2.5 0 0 1 1565.83,721.06 L1565.83,305.68 A2.5,2.5 0 0 1 1568.33,303.18" fill="none" style="stroke:#000000;stroke-width:1.5;"/><line style="stroke:#000000;stroke-width:1.5;" x1="1565.83" x2="1716.9" y1="325.4769" y2="325.4769"/><text fill="#000000" font-family="sans-serif" font-size="14" font-weight="700" lengthAdjust="spacing" textLength="138.07" x="1569.83" y="318.1751">&#49892;&#54665; &#52968;&#53580;&#51060;&#45320; (prod)</text></g><!--entity R1--><g class="entity" data-qualified-name="Runner.R1" data-source-line="12" id="ent0002"><rect fill="#FFFFFF" height="52.5938" rx="2.5" ry="2.5" style="stroke:#6E7681;stroke-width:0.5;" width="235.8615" x="906.9" y="41"/><text fill="#000000" font-family="sans-serif" font-size="14" lengthAdjust="spacing" textLength="47.9951" x="916.9" y="63.9951">dev up</text><text fill="#000000" font-family="sans-serif" font-size="14" lengthAdjust="spacing" textLength="215.8615" x="916.9" y="80.292">(&#47700;&#51064; &#53944;&#47532;: db+web+scheduler)</text></g><!--entity R1W--><g class="entity" data-qualified-name="Runner.R1W" data-source-line="13" id="ent0003"><rect fill="#FFFFFF" height="52.5938" rx="2.5" ry="2.5" style="stroke:#6E7681;stroke-width:0.5;" width="215.0673" x="1177.3" y="41"/><text fill="#000000" font-family="sans-serif" font-size="14" lengthAdjust="spacing" textLength="47.9951" x="1187.3" y="63.9951">dev up</text><text fill="#000000" font-family="sans-serif" font-size="14" lengthAdjust="spacing" textLength="195.0673" x="1187.3" y="80.292">(&#50892;&#53356;&#53944;&#47532;: web+scheduler&#47564;)</text></g><!--entity R2--><g class="entity" data-qualified-name="Runner.R2" data-source-line="14" id="ent0004"><rect fill="#FFFFFF" height="36.2969" rx="2.5" ry="2.5" style="stroke:#6E7681;stroke-width:0.5;" width="123.2842" x="1427.19" y="49.15"/><text fill="#000000" font-family="sans-serif" font-size="14" lengthAdjust="spacing" textLength="103.2842" x="1437.19" y="72.1451">prod up --build</text></g><!--entity F0--><g class="entity" data-qualified-name="Files.F0" data-source-line="18" id="ent0006"><rect fill="#FFFFFF" height="52.5938" rx="2.5" ry="2.5" style="stroke:#6E7681;stroke-width:0.5;" width="172.5614" x="1199.55" y="177.59"/><text fill="#000000" font-family="sans-serif" font-size="14" lengthAdjust="spacing" textLength="93.5225" x="1209.55" y="200.5851">compose.yml</text><text fill="#000000" font-family="sans-serif" font-size="14" lengthAdjust="spacing" textLength="152.5614" x="1209.55" y="216.882">(&#49436;&#48708;&#49828; &#51221;&#51032; + secrets)</text></g><!--entity FC--><g class="entity" data-qualified-name="Files.FC" data-source-line="19" id="ent0007"><rect fill="#FFFFFF" height="52.5938" rx="2.5" ry="2.5" style="stroke:#6E7681;stroke-width:0.5;" width="178.9492" x="1407.36" y="177.59"/><text fill="#000000" font-family="sans-serif" font-size="14" lengthAdjust="spacing" textLength="158.9492" x="1417.36" y="200.5851">compose.common.yml</text><text fill="#000000" font-family="sans-serif" font-size="14" lengthAdjust="spacing" textLength="122.0777" x="1417.36" y="216.882">(restart&#183;&#47196;&#44613;&#183;pids)</text></g><!--entity FD--><g class="entity" data-qualified-name="Files.FD" data-source-line="20" id="ent0008"><rect fill="#FFFFFF" height="52.5938" rx="2.5" ry="2.5" style="stroke:#6E7681;stroke-width:0.5;" width="367.2034" x="483.23" y="177.59"/><text fill="#000000" font-family="sans-serif" font-size="14" lengthAdjust="spacing" textLength="123.7578" x="493.23" y="200.5851">compose.dev.yml</text><text fill="#000000" font-family="sans-serif" font-size="14" lengthAdjust="spacing" textLength="347.2034" x="493.23" y="216.882">(web+scheduler &#49548;&#49828;&#47560;&#50868;&#53944;&#183;&#50937; &#54217;&#47928;:${WEB_PORT})</text></g><!--entity FDB--><g class="entity" data-qualified-name="Files.FDB" data-source-line="21" id="ent0009"><rect fill="#FFFFFF" height="52.5938" rx="2.5" ry="2.5" style="stroke:#6E7681;stroke-width:0.5;" width="236.9324" x="211.37" y="177.59"/><text fill="#000000" font-family="sans-serif" font-size="14" lengthAdjust="spacing" textLength="146.583" x="221.37" y="200.5851">compose.dev-db.yml</text><text fill="#000000" font-family="sans-serif" font-size="14" lengthAdjust="spacing" textLength="216.9324" x="221.37" y="216.882">(db&#183;DB&#54252;&#53944;&#45432;&#52636; &#8212; &#47700;&#51064; &#53944;&#47532; &#51204;&#50857;)</text></g><!--entity FN--><g class="entity" data-qualified-name="Files.FN" data-source-line="22" id="ent0010"><rect fill="#FFFFFF" height="52.5938" rx="2.5" ry="2.5" style="stroke:#6E7681;stroke-width:0.5;" width="278.7805" x="885.44" y="177.59"/><text fill="#000000" font-family="sans-serif" font-size="14" lengthAdjust="spacing" textLength="151.7852" x="895.44" y="200.5851">compose.dev-net.yml</text><text fill="#000000" font-family="sans-serif" font-size="14" lengthAdjust="spacing" textLength="258.7805" x="895.44" y="216.882">(&#50808;&#48512; &#45348;&#53944;&#50892;&#53356; vulnagent-dev-net &#44277;&#50976;)</text></g><!--entity FP--><g class="entity" data-qualified-name="Files.FP" data-source-line="23" id="ent0011"><rect fill="#FFFFFF" height="52.5938" rx="2.5" ry="2.5" style="stroke:#6E7681;stroke-width:0.5;" width="260.1458" x="1621.76" y="177.59"/><text fill="#000000" font-family="sans-serif" font-size="14" lengthAdjust="spacing" textLength="130.0674" x="1631.76" y="200.5851">compose.prod.yml</text><text fill="#000000" font-family="sans-serif" font-size="14" lengthAdjust="spacing" textLength="240.1458" x="1631.76" y="216.882">(&#51060;&#48120;&#51648;&#53076;&#46300;&#183;DB&#48708;&#45432;&#52636;&#183;my.cnf&#183;caddy)</text></g><!--entity S1--><g class="entity" data-qualified-name="Secrets.S1" data-source-line="27" id="ent0013"><rect fill="#FFFFFF" height="36.2969" rx="2.5" ry="2.5" style="stroke:#6E7681;stroke-width:0.5;" width="171.0811" x="2520.29" y="185.74"/><text fill="#000000" font-family="sans-serif" font-size="14" lengthAdjust="spacing" textLength="151.0811" x="2530.29" y="208.7351">mysql_root_password</text></g><!--entity S2--><g class="entity" data-qualified-name="Secrets.S2" data-source-line="28" id="ent0014"><rect fill="#FFFFFF" height="36.2969" rx="2.5" ry="2.5" style="stroke:#6E7681;stroke-width:0.5;" width="135.7051" x="2349.98" y="185.74"/><text fill="#000000" font-family="sans-serif" font-size="14" lengthAdjust="spacing" textLength="115.7051" x="2359.98" y="208.7351">mysql_password</text></g><!--entity S4--><g class="entity" data-qualified-name="Secrets.S4" data-source-line="29" id="ent0015"><rect fill="#FFFFFF" height="36.2969" rx="2.5" ry="2.5" style="stroke:#6E7681;stroke-width:0.5;" width="137.5781" x="2177.04" y="185.74"/><text fill="#000000" font-family="sans-serif" font-size="14" lengthAdjust="spacing" textLength="117.5781" x="2187.04" y="208.7351">admin_password</text></g><!--entity S5--><g class="entity" data-qualified-name="Secrets.S5" data-source-line="30" id="ent0016"><rect fill="#FFFFFF" height="36.2969" rx="2.5" ry="2.5" style="stroke:#6E7681;stroke-width:0.5;" width="203.5054" x="1938.08" y="185.74"/><text fill="#000000" font-family="sans-serif" font-size="14" lengthAdjust="spacing" textLength="183.5054" x="1948.08" y="208.7351">duckdns_token (prod &#51204;&#50857;)</text></g><!--entity CADDY--><g class="entity" data-qualified-name="Stack.CADDY" data-source-line="34" id="ent0018"><rect fill="#8250DF" height="85.1875" rx="2.5" ry="2.5" style="stroke:#6E7681;stroke-width:0.5;" width="320.4919" x="1589.59" y="346.18"/><text fill="#000000" font-family="sans-serif" font-size="14" lengthAdjust="spacing" textLength="42.335" x="1599.59" y="369.1751">caddy</text><text fill="#000000" font-family="sans-serif" font-size="14" lengthAdjust="spacing" textLength="231.5355" x="1599.59" y="385.472">443&#8594;&#54840;&#49828;&#53944; ${WEB_PORT:-8080}</text><text fill="#000000" font-family="sans-serif" font-size="14" lengthAdjust="spacing" textLength="300.4919" x="1599.59" y="401.7689">&#48372;&#50504; &#51025;&#45813; &#54756;&#45908;(CSP&#183;nosniff&#183;X-Frame-Options)</text><text fill="#000000" font-family="sans-serif" font-size="14" lengthAdjust="spacing" textLength="168.6426" x="1599.59" y="418.0657">HSTS &#45716; &#51088;&#52404;&#49436;&#47749;&#51060;&#46972; &#48372;&#47448;</text></g><!--entity WC--><g class="entity" data-qualified-name="Stack.WC" data-source-line="35" id="ent0019"><rect fill="#238636" height="52.5938" rx="2.5" ry="2.5" style="stroke:#6E7681;stroke-width:0.5;" width="172.209" x="1589.73" y="508.37"/><text fill="#000000" font-family="sans-serif" font-size="14" lengthAdjust="spacing" textLength="152.209" x="1599.73" y="531.3651">web &#183; php:8.3-apache</text><text fill="#000000" font-family="sans-serif" font-size="14" lengthAdjust="spacing" textLength="142.9182" x="1599.73" y="547.662">&#45236;&#48512; 80&#47564;(&#50808;&#48512; &#48708;&#45432;&#52636;)</text></g><!--entity SCH--><g class="entity" data-qualified-name="Stack.SCH" data-source-line="36" id="ent0020"><rect fill="#A371F7" height="52.5938" rx="2.5" ry="2.5" style="stroke:#6E7681;stroke-width:0.5;" width="149.0215" x="1797.32" y="508.37"/><text fill="#000000" font-family="sans-serif" font-size="14" lengthAdjust="spacing" textLength="129.0215" x="1807.32" y="531.3651">scheduler &#183; php-cli</text><text fill="#000000" font-family="sans-serif" font-size="14" lengthAdjust="spacing" textLength="98.7839" x="1807.32" y="547.662">(&#54588;&#46300; &#51452;&#44592; &#49892;&#54665;)</text></g><!--entity DC--><g class="entity" data-qualified-name="Stack.DC" data-source-line="37" id="ent0021"><path d="M1822.78,647.97 C1822.78,637.97 1882.8293,637.97 1882.8293,637.97 C1882.8293,637.97 1942.8786,637.97 1942.8786,647.97 L1942.8786,689.5637 C1942.8786,699.5637 1882.8293,699.5637 1882.8293,699.5637 C1882.8293,699.5637 1822.78,699.5637 1822.78,689.5637 L1822.78,647.97" fill="#1F6FEB" style="stroke:#181818;stroke-width:0.5;"/><path d="M1822.78,647.97 C1822.78,657.97 1882.8293,657.97 1882.8293,657.97 C1882.8293,657.97 1942.8786,657.97 1942.8786,647.97" fill="none" style="stroke:#181818;stroke-width:0.5;"/><text fill="#000000" font-family="sans-serif" font-size="14" lengthAdjust="spacing" textLength="100.0986" x="1832.78" y="674.9651">db &#183; mysql:8.0</text><text fill="#000000" font-family="sans-serif" font-size="14" lengthAdjust="spacing" textLength="52.6398" x="1832.78" y="691.262">&#45236;&#48512;&#47581;&#47564;</text></g><!--entity REMOTE--><g class="entity" data-qualified-name="REMOTE" data-source-line="65" id="ent0042"><rect fill="#FFFFFF" height="36.2969" rx="2.5" ry="2.5" style="stroke:#6E7681;stroke-width:0.5;" width="169.6668" x="7" y="185.74"/><text fill="#000000" font-family="sans-serif" font-size="14" lengthAdjust="spacing" textLength="149.6668" x="17" y="208.7351">&#50896;&#44201; &#50640;&#51060;&#51204;&#53944; / &#48652;&#46972;&#50864;&#51200;</text></g><!--entity LOCAL--><g class="entity" data-qualified-name="LOCAL" data-source-line="66" id="ent0043"><rect fill="#FFFFFF" height="52.5938" rx="2.5" ry="2.5" style="stroke:#6E7681;stroke-width:0.5;" width="145.1038" x="2006.28" y="362.48"/><text fill="#000000" font-family="sans-serif" font-size="14" lengthAdjust="spacing" textLength="83.4099" x="2016.28" y="385.4751">&#47196;&#52972; &#50640;&#51060;&#51204;&#53944;</text><text fill="#000000" font-family="sans-serif" font-size="14" lengthAdjust="spacing" textLength="125.1038" x="2016.28" y="401.772">(&#51473;&#50521;&#49436;&#48260; &#51088;&#49888; &#49828;&#52884;)</text></g><!--link R1 to F0--><g class="link" data-entity-1="ent0002" data-entity-2="ent0006" data-link-type="dependency" data-source-line="40" id="lnk22"><path d="M1093.32,94.06 C1121.3,105.39 1153.64,119.54 1181.83,134.59 C1205.46,147.2 1226.4874,160.7763 1246.1274,174.3563" fill="none" id="R1-to-F0" style="stroke:#181818;stroke-width:1;"/><polygon fill="#181818" points="1250.24,177.2,1245.1122,168.7913,1246.1274,174.3563,1240.5624,175.3715,1250.24,177.2" style="stroke:#181818;stroke-width:1;stroke-linejoin:miter;stroke-miterlimit:10;"/></g><!--link R1 to FC--><g class="link" data-entity-1="ent0002" data-entity-2="ent0007" data-link-type="dependency" data-source-line="41" id="lnk23"><path d="M1084.27,94.02 C1107.43,102.97 1134.46,112.13 1159.83,117.59 C1260.04,139.15 1292.57,102.26 1389.83,134.59 C1417.65,143.84 1441.4412,158.9084 1461.7312,174.1384" fill="none" id="R1-to-FC" style="stroke:#181818;stroke-width:1;"/><polygon fill="#181818" points="1465.73,177.14,1460.9334,168.5381,1461.7312,174.1384,1456.1309,174.9362,1465.73,177.14" style="stroke:#181818;stroke-width:1;stroke-linejoin:miter;stroke-miterlimit:10;"/></g><!--link R1 to FD--><g class="link" data-entity-1="ent0002" data-entity-2="ent0008" data-link-type="dependency" data-source-line="42" id="lnk24"><path d="M956.23,94.09 C892.68,117.98 803.3603,151.5608 739.8803,175.4208" fill="none" id="R1-to-FD" style="stroke:#181818;stroke-width:1;"/><polygon fill="#181818" points="735.2,177.18,745.0319,177.7577,739.8803,175.4208,742.2172,170.2692,735.2,177.18" style="stroke:#181818;stroke-width:1;stroke-linejoin:miter;stroke-miterlimit:10;"/></g><!--link R1 to FDB--><g class="link" data-entity-1="ent0002" data-entity-2="ent0009" data-link-type="dependency" data-source-line="43" id="lnk25"><path d="M906.54,70.49 C791.71,75.36 613.6,90.22 465.83,134.59 C432.56,144.58 401.9243,159.8547 375.7743,174.7547" fill="none" id="R1-to-FDB" style="stroke:#181818;stroke-width:1;"/><polygon fill="#181818" points="371.43,177.23,381.23,176.2498,375.7743,174.7547,377.2694,169.299,371.43,177.23" style="stroke:#181818;stroke-width:1;stroke-linejoin:miter;stroke-miterlimit:10;"/></g><!--link R1 to FN--><g class="link" data-entity-1="ent0002" data-entity-2="ent0010" data-link-type="dependency" data-source-line="44" id="lnk26"><path d="M1024.83,93.93 C1024.83,117.88 1024.83,148.43 1024.83,172.35" fill="none" id="R1-to-FN" style="stroke:#181818;stroke-width:1;"/><polygon fill="#181818" points="1024.83,177.35,1028.83,168.35,1024.83,172.35,1020.83,168.35,1024.83,177.35" style="stroke:#181818;stroke-width:1;stroke-linejoin:miter;stroke-miterlimit:10;"/></g><!--link R1W to F0--><g class="link" data-entity-1="ent0003" data-entity-2="ent0006" data-link-type="dependency" data-source-line="46" id="lnk27"><path d="M1285.02,93.93 C1285.2,117.88 1285.4345,148.4301 1285.6045,172.3501" fill="none" id="R1W-to-F0" style="stroke:#181818;stroke-width:1;"/><polygon fill="#181818" points="1285.64,177.35,1289.5759,168.3218,1285.6045,172.3501,1281.5761,168.3787,1285.64,177.35" style="stroke:#181818;stroke-width:1;stroke-linejoin:miter;stroke-miterlimit:10;"/></g><!--link R1W to FC--><g class="link" data-entity-1="ent0003" data-entity-2="ent0007" data-link-type="dependency" data-source-line="47" id="lnk28"><path d="M1325.75,94.06 C1345.18,106.32 1368.72,121.19 1389.83,134.59 C1411.97,148.65 1432.4372,161.6969 1452.5072,174.5269" fill="none" id="R1W-to-FC" style="stroke:#181818;stroke-width:1;"/><polygon fill="#181818" points="1456.72,177.22,1451.2915,169.0023,1452.5072,174.5269,1446.9826,175.7427,1456.72,177.22" style="stroke:#181818;stroke-width:1;stroke-linejoin:miter;stroke-miterlimit:10;"/></g><!--link R1W to FD--><g class="link" data-entity-1="ent0003" data-entity-2="ent0008" data-link-type="dependency" data-source-line="48" id="lnk29"><path d="M1230.64,94.01 C1209.08,103.08 1183.75,112.32 1159.83,117.59 C1032.88,145.57 995.42,109.68 867.83,134.59 C819.72,143.99 772.0121,160.2432 732.7921,175.4432" fill="none" id="R1W-to-FD" style="stroke:#181818;stroke-width:1;"/><polygon fill="#181818" points="728.13,177.25,737.9673,177.7274,732.7921,175.4432,735.0763,170.268,728.13,177.25" style="stroke:#181818;stroke-width:1;stroke-linejoin:miter;stroke-miterlimit:10;"/></g><!--link R1W to FN--><g class="link" data-entity-1="ent0003" data-entity-2="ent0010" data-link-type="dependency" data-source-line="49" id="lnk30"><path d="M1254.32,93.82 C1239.95,104.95 1222.19,117.51 1204.83,126.59 C1195.24,131.61 1191.91,130.65 1181.83,134.59 C1148.06,147.79 1115.3858,161.882 1085.6558,175.152" fill="none" id="R1W-to-FN" style="stroke:#181818;stroke-width:1;"/><polygon fill="#181818" points="1081.09,177.19,1090.9388,177.1743,1085.6558,175.152,1087.6781,169.869,1081.09,177.19" style="stroke:#181818;stroke-width:1;stroke-linejoin:miter;stroke-miterlimit:10;"/></g><!--link R2 to F0--><g class="link" data-entity-1="ent0004" data-entity-2="ent0006" data-link-type="dependency" data-source-line="51" id="lnk31"><path d="M1462.29,85.89 C1427.15,109.19 1369.0869,147.6865 1328.7069,174.4665" fill="none" id="R2-to-F0" style="stroke:#181818;stroke-width:1;"/><polygon fill="#181818" points="1324.54,177.23,1334.2512,175.5892,1328.7069,174.4665,1329.8296,168.9222,1324.54,177.23" style="stroke:#181818;stroke-width:1;stroke-linejoin:miter;stroke-miterlimit:10;"/></g><!--link R2 to FC--><g class="link" data-entity-1="ent0004" data-entity-2="ent0007" data-link-type="dependency" data-source-line="52" id="lnk32"><path d="M1489.88,85.89 C1491.27,109.26 1493.4335,145.7088 1495.0235,172.4788" fill="none" id="R2-to-FC" style="stroke:#181818;stroke-width:1;"/><polygon fill="#181818" points="1495.32,177.47,1498.7793,168.2487,1495.0235,172.4788,1490.7934,168.723,1495.32,177.47" style="stroke:#181818;stroke-width:1;stroke-linejoin:miter;stroke-miterlimit:10;"/></g><!--link R2 to FP--><g class="link" data-entity-1="ent0004" data-entity-2="ent0011" data-link-type="dependency" data-source-line="53" id="lnk33"><path d="M1523.22,85.89 C1568.75,109.19 1644.9192,148.1718 1697.2392,174.9518" fill="none" id="R2-to-FP" style="stroke:#181818;stroke-width:1;"/><polygon fill="#181818" points="1701.69,177.23,1695.501,169.5686,1697.2392,174.9518,1691.856,176.69,1701.69,177.23" style="stroke:#181818;stroke-width:1;stroke-linejoin:miter;stroke-miterlimit:10;"/></g><!--link F0 to Stack--><g class="link" data-entity-1="ent0006" data-entity-2="ent0017" data-link-type="dependency" data-source-line="55" id="lnk34"><path d="M1330.23,230.56 C1348.16,239.68 1369.41,248.97 1389.83,254.18 C1451.62,269.97 1917.25,242.59 1962.83,287.18 C1978.61,302.62 1980.795,327.23 1978.945,348.2437 C1978.9161,348.5721 1979.3563,343.9217 1979.3255,344.2482" fill="none" id="F0-to-Stack" style="stroke:#181818;stroke-width:1;"/><polygon fill="#181818" points="1978.8554,349.2261,1983.6839,340.6421,1979.3255,344.2482,1975.7193,339.8898,1978.8554,349.2261" style="stroke:#181818;stroke-width:1;stroke-linejoin:miter;stroke-miterlimit:10;"/></g><!--link S5 to CADDY--><g class="link" data-entity-1="ent0016" data-entity-2="ent0018" data-link-type="dependency" data-source-line="57" id="lnk35"><path d="M2012.03,222.42 C1967.37,250.59 1882.6492,304.0228 1820.8092,343.0228" fill="none" id="S5-to-CADDY" style="stroke:#181818;stroke-width:1;"/><polygon fill="#181818" points="1816.58,345.69,1826.3263,344.2724,1820.8092,343.0228,1822.0588,337.5057,1816.58,345.69" style="stroke:#181818;stroke-width:1;stroke-linejoin:miter;stroke-miterlimit:10;"/></g><!--link S2 to WC--><g class="link" data-entity-1="ent0014" data-entity-2="ent0019" data-link-type="dependency" data-source-line="58" id="lnk36"><path d="M2406.17,222.5 C2378.73,263.04 2306.42,364.54 2227.83,431.37 C2196.71,457.84 2187.75,465.95 2148.83,478.37 C1992.08,528.4 1942.28,482.18 1779.83,508.37 C1774.05,509.3 1773.0232,509.411 1767.0632,510.601" fill="none" id="S2-to-WC" style="stroke:#181818;stroke-width:1;"/><polygon fill="#181818" points="1762.16,511.58,1771.769,513.7404,1767.0632,510.601,1770.2026,505.8952,1762.16,511.58" style="stroke:#181818;stroke-width:1;stroke-linejoin:miter;stroke-miterlimit:10;"/></g><!--link S4 to WC--><g class="link" data-entity-1="ent0015" data-entity-2="ent0019" data-link-type="dependency" data-source-line="59" id="lnk37"><path d="M2244.87,222.23 C2241.63,263.98 2227.72,371.04 2168.83,431.37 C2045.73,557.49 1953.34,477.42 1779.83,508.37 C1774.07,509.4 1773.0448,509.5399 1767.0948,510.7799" fill="none" id="S4-to-WC" style="stroke:#181818;stroke-width:1;"/><polygon fill="#181818" points="1762.2,511.8,1771.8268,513.8797,1767.0948,510.7799,1770.1946,506.048,1762.2,511.8" style="stroke:#181818;stroke-width:1;stroke-linejoin:miter;stroke-miterlimit:10;"/></g><!--link S2 to SCH--><g class="link" data-entity-1="ent0014" data-entity-2="ent0020" data-link-type="dependency" data-source-line="60" id="lnk38"><path d="M2419.48,222.47 C2422.37,263.83 2423.85,368.49 2372.83,431.37 C2320.09,496.39 2078.0687,520.7937 1951.6987,529.3137" fill="none" id="S2-to-SCH" style="stroke:#181818;stroke-width:1;"/><polygon fill="#181818" points="1946.71,529.65,1955.9587,533.0355,1951.6987,529.3137,1955.4205,525.0536,1946.71,529.65" style="stroke:#181818;stroke-width:1;stroke-linejoin:miter;stroke-miterlimit:10;"/></g><!--link S4 to SCH--><g class="link" data-entity-1="ent0015" data-entity-2="ent0020" data-link-type="dependency" data-source-line="61" id="lnk39"><path d="M2251.46,222.4 C2265.65,270.35 2297.26,405.09 2230.83,478.37 C2193.88,519.14 2045.4978,529.871 1951.5878,532.671" fill="none" id="S4-to-SCH" style="stroke:#181818;stroke-width:1;"/><polygon fill="#181818" points="1946.59,532.82,1955.7052,536.55,1951.5878,532.671,1955.4668,528.5536,1946.59,532.82" style="stroke:#181818;stroke-width:1;stroke-linejoin:miter;stroke-miterlimit:10;"/></g><!--link S1 to DC--><g class="link" data-entity-1="ent0013" data-entity-2="ent0021" data-link-type="dependency" data-source-line="62" id="lnk40"><path d="M2597.69,222.43 C2578.91,261.96 2529.74,360.11 2472.83,431.37 C2420.33,497.12 2406.14,516.31 2334.83,560.97 C2210.46,638.86 2039.4603,659.6581 1948.1103,665.3681" fill="none" id="S1-to-DC" style="stroke:#181818;stroke-width:1;"/><polygon fill="#181818" points="1943.12,665.68,1952.352,669.1107,1948.1103,665.3681,1951.8529,661.1263,1943.12,665.68" style="stroke:#181818;stroke-width:1;stroke-linejoin:miter;stroke-miterlimit:10;"/></g><!--link S2 to DC--><g class="link" data-entity-1="ent0014" data-entity-2="ent0021" data-link-type="dependency" data-source-line="63" id="lnk41"><path d="M2429.4,222.37 C2435.93,233.31 2443.44,247.98 2446.83,262.18 C2459.97,317.24 2506.49,313.76 2421.83,431.37 C2306.48,591.64 2063.0801,643.9451 1948.2701,660.2951" fill="none" id="S2-to-DC" style="stroke:#181818;stroke-width:1;"/><polygon fill="#181818" points="1943.32,661,1952.7941,663.6912,1948.2701,660.2951,1951.6662,655.7711,1943.32,661" style="stroke:#181818;stroke-width:1;stroke-linejoin:miter;stroke-miterlimit:10;"/></g><!--link REMOTE to CADDY--><g class="link" data-entity-1="ent0042" data-entity-2="ent0018" data-link-type="dependency" data-source-line="68" id="lnk44"><path d="M121.23,222.31 C141.48,233.42 169.41,247.04 195.83,254.18 C455.26,324.37 1241.6949,365.8086 1584.1249,380.9886" fill="none" id="REMOTE-to-CADDY" style="stroke:#181818;stroke-width:1;"/><polygon fill="#181818" points="1589.12,381.21,1580.306,376.8153,1584.1249,380.9886,1579.9517,384.8075,1589.12,381.21" style="stroke:#181818;stroke-width:1;stroke-linejoin:miter;stroke-miterlimit:10;"/><text fill="#000000" font-family="sans-serif" font-size="13" lengthAdjust="spacing" textLength="171.6382" x="293.04" y="275.2469">https://&lt;&#50868;&#50689;-&#46020;&#47700;&#51064;&gt;:8080</text></g><!--link CADDY to WC--><g class="link" data-entity-1="ent0018" data-entity-2="ent0019" data-link-type="dependency" data-source-line="69" id="lnk45"><path d="M1728.23,431.78 C1715.52,456.5 1702.1356,482.513 1691.2656,503.663" fill="none" id="CADDY-to-WC" style="stroke:#181818;stroke-width:1;"/><polygon fill="#181818" points="1688.98,508.11,1696.6516,501.9338,1691.2656,503.663,1689.5364,498.2769,1688.98,508.11" style="stroke:#181818;stroke-width:1;stroke-linejoin:miter;stroke-miterlimit:10;"/><text fill="#000000" font-family="sans-serif" font-size="13" lengthAdjust="spacing" textLength="77.6215" x="1713.83" y="474.4369">http (&#45236;&#48512;&#47581;)</text></g><!--link LOCAL to WC--><g class="link" data-entity-1="ent0043" data-entity-2="ent0019" data-link-type="dependency" data-source-line="70" id="lnk46"><path d="M2024.76,415.38 C2012.4,420.91 1999.25,426.54 1986.83,431.37 C1912.02,460.49 1829.8585,487.1484 1766.9585,506.5184" fill="none" id="LOCAL-to-WC" style="stroke:#181818;stroke-width:1;"/><polygon fill="#181818" points="1762.18,507.99,1771.9586,509.164,1766.9585,506.5184,1769.6041,501.5184,1762.18,507.99" style="stroke:#181818;stroke-width:1;stroke-linejoin:miter;stroke-miterlimit:10;"/><text fill="#000000" font-family="sans-serif" font-size="13" lengthAdjust="spacing" textLength="128.0592" x="1903.42" y="474.4369">&#54217;&#47928; 127.0.0.1:8081</text></g><!--link WC to DC--><g class="link" data-entity-1="ent0019" data-entity-2="ent0021" data-link-type="dependency" data-source-line="71" id="lnk47"><path d="M1702.4,561.28 C1718.51,576.01 1739.93,594.26 1760.83,607.97 C1780.07,620.58 1797.8362,630.0992 1818.0462,639.7292" fill="none" id="WC-to-DC" style="stroke:#181818;stroke-width:1;"/><polygon fill="#181818" points="1822.56,641.88,1816.1559,634.3976,1818.0462,639.7292,1812.7146,641.6196,1822.56,641.88" style="stroke:#181818;stroke-width:1;stroke-linejoin:miter;stroke-miterlimit:10;"/><text fill="#000000" font-family="sans-serif" font-size="13" lengthAdjust="spacing" textLength="106.1288" x="1761.83" y="604.0369">vulnagent &#45236;&#48512;&#47581;</text></g><!--link SCH to DC--><g class="link" data-entity-1="ent0020" data-entity-2="ent0021" data-link-type="dependency" data-source-line="72" id="lnk48"><path d="M1873.98,561.45 C1875.81,583.38 1878.0144,609.8873 1879.9344,632.9073" fill="none" id="SCH-to-DC" style="stroke:#181818;stroke-width:1;"/><polygon fill="#181818" points="1880.35,637.89,1883.5881,628.5887,1879.9344,632.9073,1875.6158,629.2536,1880.35,637.89" style="stroke:#181818;stroke-width:1;stroke-linejoin:miter;stroke-miterlimit:10;"/></g><?plantuml-src VLLTJzjM6BxthtW5ave8ELzyHT5KgKb0lUWA8aZP92Jas2V48h4zsob35HATGaM12Rg5bWAPCesDCKKQWz24bTtaf_GId_o7llQnOmAboKNU-3pFa_VZEMyUmBDoKU651QAOq3aU0UlqjBlTWEkB1gty2m69F8CmQBeg1Ra7G0zshFDs0YHLDC9u51PqiI2RH3JBEWcL94SXK29wIP0bo1VL9R4Ww2RC9eCSPopAYYReGWbq90ZAGf70SmxmbHJ4nGLTBIjIIYsgEWpcdHSxKtM9wExpCJ8-5ezoApUq9C4KSe91xjFmaKP1aDGbMLc0l50q2CTfIC72OK1KIvfga7czh2X43nc50H0Cc76-kIdwAG_OBIbhSqh0EgdIMXkw6sthpmOs9JUqH793XbWWKhb8z21JYTxBfmTRtHSDZzx7jOwtF7hsDjyU1We0p-VASb5Yi1WsvKv1ODNNQQr9tpGTqAHS9CRTUbnmQBbKj9Eg75gN5Rfn1BI-IsjxC0G64NLY6YoXoSXzVFmigOehenF3nCbtMjPlXzUNQvsM9akUGke-1UoCI-zh1j2NMvYGTRnEzvlOhawB7bn2T_kLrMWdldgUdKZEJq_DpAwuykaloFDIplq5ATTffPDeTRl_Qstw_X0-hbQXRwROWWhTF_5qaryILeZfTV1Tstg_2bRb25NOZ9rBvjmntiN2zVa5FQoxqa_lKxPdxSdMcjO_RNgyIl-lMhySsjdZe5ZgdLPfEIGg-KvB52HfsLMTxlD4MXKNiPSPDam8c3-O3ESzkMECqhBnVN5ULrLpNXCCOmbl8YD4Fu_i1yLkWmIf92ktG2DtBaTPN9GKOzvK5ua20SVhDwUG6UqhYcuUTT-y0lhXh-xQbjsXoZeZkMWJWPznlDsaEMLaPFZZov-xUsqq5uuAV2ib-7Wa7bcPKwpp9jrT1rfxRMrUGFVjaVLJDP3AJ7TQYceeSXux_Yq_YTk5y5EQAQkA4PnJ7cTcCs1jL87-kaFFclQD-dlDJgvs1IXe_R7d99Twb4v_1uFns6X4ojzE4Iy0T5gW5RH4F3JC2rXnWM0-FpPjRyKZk21wHlDSm6hEfc0mDXmV6nwxhUbVAARCYqKPZTMjNg6VWFv-TTq-1TPHjtsfnp0e38z7y-EEbhThSKnETixOCR-8bvXrNCF476uQquZcn_8aPmzi9ehhwg6zFBmerOlIVfJiXKzjJjOdPNrMrgTbVN2iXutre6uqpN6J4ITq_C1ncL7dcpC0BiDGsHIN6Ub5x1dMxprqGfPRkdUE4NUZl_ZlU7rs0lJjZhrqwnNRKs6msbiuUBf_IkkhR5TFV3CrEt6JY3kIVcZq4UqBV_IQxhwptNDMSQoqMGTqAlslogRpP2hrw0bMxiZv1K422gQf6Obm-6lSbtJl1MzjLzXUUvYmVSqn7AlLXKEWDy4WvoZxvspJGZGs7ehWEsgBH3ayOZr0H6-zGK-5iytZDkaJ?></g></svg>