<svg xmlns="http://www.w3.org/2000/svg" xmlns:xlink="http://www.w3.org/1999/xlink" contentStyleType="text/css" data-diagram-type="DESCRIPTION" height="860px" preserveAspectRatio="none" style="width:2058px;height:860px;background:#FFFFFF;" version="1.1" viewBox="0 0 2058 860" width="2058px" zoomAndPan="magnify"><?plantuml 1.2026.6?><defs/><g><!--cluster Vuln--><g class="cluster" data-qualified-name="Vuln" data-source-line="16" id="ent0005"><path d="M15.67,464.78 L285.0375,464.78 A3.75,3.75 0 0 1 287.5375,467.28 L294.5375,487.0769 L1175.67,487.0769 A2.5,2.5 0 0 1 1178.17,489.5769 L1178.17,843.06 A2.5,2.5 0 0 1 1175.67,845.56 L15.67,845.56 A2.5,2.5 0 0 1 13.17,843.06 L13.17,467.28 A2.5,2.5 0 0 1 15.67,464.78" fill="none" style="stroke:#000000;stroke-width:1.5;"/><line style="stroke:#000000;stroke-width:1.5;" x1="13.17" x2="294.5375" y1="487.0769" y2="487.0769"/><text fill="#000000" font-family="sans-serif" font-size="14" font-weight="700" lengthAdjust="spacing" textLength="268.3675" x="17.17" y="479.7751">&#52712;&#50557;&#51216; (perm: findings / advisories)</text></g><!--cluster Quick--><g class="cluster" data-qualified-name="Quick" data-source-line="28" id="ent0015"><path d="M1387.67,296.18 L1516.4945,296.18 A3.75,3.75 0 0 1 1518.9945,298.68 L1525.9945,318.4769 L1719.67,318.4769 A2.5,2.5 0 0 1 1722.17,320.9769 L1722.17,413.28 A2.5,2.5 0 0 1 1719.67,415.78 L1387.67,415.78 A2.5,2.5 0 0 1 1385.17,413.28 L1385.17,298.68 A2.5,2.5 0 0 1 1387.67,296.18" fill="none" style="stroke:#000000;stroke-width:1.5;"/><line style="stroke:#000000;stroke-width:1.5;" x1="1385.17" x2="1525.9945" y1="318.4769" y2="318.4769"/><text fill="#000000" font-family="sans-serif" font-size="14" font-weight="700" lengthAdjust="spacing" textLength="127.8245" x="1389.17" y="311.1751">&#48148;&#47196;&#44032;&#44592; (&#54637;&#49345; &#45432;&#52636;)</text></g><!--cluster Admin--><g class="cluster" data-qualified-name="Admin" data-source-line="33" id="ent0018"><path d="M1220.67,464.78 L1247.9899,464.78 A3.75,3.75 0 0 1 1250.4899,467.28 L1257.4899,487.0769 L2040.67,487.0769 A2.5,2.5 0 0 1 2043.17,489.5769 L2043.17,581.87 A2.5,2.5 0 0 1 2040.67,584.37 L1220.67,584.37 A2.5,2.5 0 0 1 1218.17,581.87 L1218.17,467.28 A2.5,2.5 0 0 1 1220.67,464.78" fill="none" style="stroke:#000000;stroke-width:1.5;"/><line style="stroke:#000000;stroke-width:1.5;" x1="1218.17" x2="1257.4899" y1="487.0769" y2="487.0769"/><text fill="#000000" font-family="sans-serif" font-size="14" font-weight="700" lengthAdjust="spacing" textLength="26.3199" x="1222.17" y="479.7751">&#44288;&#47532;</text></g><!--cluster API--><g class="cluster" data-qualified-name="API" data-source-line="41" id="ent0024"><path d="M1453.67,6 L1645.6069,6 A3.75,3.75 0 0 1 1648.1069,8.5 L1655.1069,28.2969 L1983.67,28.2969 A2.5,2.5 0 0 1 1986.17,30.7969 L1986.17,107.09 A2.5,2.5 0 0 1 1983.67,109.59 L1453.67,109.59 A2.5,2.5 0 0 1 1451.17,107.09 L1451.17,8.5 A2.5,2.5 0 0 1 1453.67,6" fill="none" style="stroke:#000000;stroke-width:1.5;"/><line style="stroke:#000000;stroke-width:1.5;" x1="1451.17" x2="1655.1069" y1="28.2969" y2="28.2969"/><text fill="#000000" font-family="sans-serif" font-size="14" font-weight="700" lengthAdjust="spacing" textLength="190.9369" x="1455.17" y="20.9951">&#51064;&#51613;: &#53664;&#53360;(&#49324;&#46988; &#47196;&#44536;&#51064;&#44284; &#48516;&#47532;)</text></g><!--entity FIND--><g class="entity" data-qualified-name="Vuln.FIND" data-source-line="17" id="ent0006"><rect fill="#FFFFFF" height="52.5938" rx="2.5" ry="2.5" style="stroke:#6E7681;stroke-width:0.5;" width="147.7971" x="358.27" y="507.78"/><text fill="#000000" font-family="sans-serif" font-size="14" lengthAdjust="spacing" textLength="91.335" x="368.27" y="530.7751">/findings.php</text><text fill="#000000" font-family="sans-serif" font-size="14" lengthAdjust="spacing" textLength="127.7971" x="368.27" y="547.072">&#53456;&#51648; &#44208;&#44284; &#183; &#44160;&#49353;/&#54596;&#53552;</text></g><!--entity CHG--><g class="entity" data-qualified-name="Vuln.CHG" data-source-line="18" id="ent0007"><rect fill="#FFFFFF" height="52.5938" rx="2.5" ry="2.5" style="stroke:#6E7681;stroke-width:0.5;" width="205.1537" x="670.59" y="655.37"/><text fill="#000000" font-family="sans-serif" font-size="14" lengthAdjust="spacing" textLength="94.6299" x="680.59" y="678.3651">/changes.php</text><text fill="#000000" font-family="sans-serif" font-size="14" lengthAdjust="spacing" textLength="185.1537" x="680.59" y="694.662">&#48320;&#54868; &#52628;&#51201; &#183; &#49888;&#44508;/&#54644;&#44208;/&#46321;&#44553;&#48320;&#44221;</text></g><!--entity CVES--><g class="entity" data-qualified-name="Vuln.CVES" data-source-line="19" id="ent0008"><rect fill="#FFFFFF" height="52.5938" rx="2.5" ry="2.5" style="stroke:#6E7681;stroke-width:0.5;" width="245.5913" x="889.37" y="507.78"/><text fill="#000000" font-family="sans-serif" font-size="14" lengthAdjust="spacing" textLength="67.7031" x="899.37" y="530.7751">/cves.php</text><text fill="#000000" font-family="sans-serif" font-size="14" lengthAdjust="spacing" textLength="225.5913" x="899.37" y="547.072">CVE &#47785;&#47197; &#183; &#53485;(&#51204;&#52404;/KEV/EPSS &#49345;&#50948;)</text></g><!--entity CVE--><g class="entity" data-qualified-name="Vuln.CVE" data-source-line="20" id="ent0009"><rect fill="#FFFFFF" height="52.5938" rx="2.5" ry="2.5" style="stroke:#6E7681;stroke-width:0.5;" width="228.5592" x="36.89" y="655.37"/><text fill="#000000" font-family="sans-serif" font-size="14" lengthAdjust="spacing" textLength="60.4092" x="46.89" y="678.3651">/cve.php</text><text fill="#000000" font-family="sans-serif" font-size="14" lengthAdjust="spacing" textLength="208.5592" x="46.89" y="694.662">CVE &#49345;&#49464; &#183; &#50689;&#54693;&#54056;&#53412;&#51648; &#183; &#48156;&#44204; &#50948;&#52824;</text></g><!--entity PKG--><g class="entity" data-qualified-name="Vuln.PKG" data-source-line="21" id="ent0010"><rect fill="#FFFFFF" height="52.5938" rx="2.5" ry="2.5" style="stroke:#6E7681;stroke-width:0.5;" width="122.457" x="300.94" y="655.37"/><text fill="#000000" font-family="sans-serif" font-size="14" lengthAdjust="spacing" textLength="102.457" x="310.94" y="678.3651">/packages.php</text><text fill="#000000" font-family="sans-serif" font-size="14" lengthAdjust="spacing" textLength="99.5905" x="310.94" y="694.662">&#54056;&#53412;&#51648; &#215; &#48176;&#54252;&#54032;</text></g><!--entity VEND--><g class="entity" data-qualified-name="Vuln.VEND" data-source-line="22" id="ent0011"><rect fill="#FFFFFF" height="52.5938" rx="2.5" ry="2.5" style="stroke:#6E7681;stroke-width:0.5;" width="147.5305" x="699.4" y="768.97"/><text fill="#000000" font-family="sans-serif" font-size="14" lengthAdjust="spacing" textLength="84.793" x="709.4" y="791.9651">/vendor.php</text><text fill="#000000" font-family="sans-serif" font-size="14" lengthAdjust="spacing" textLength="127.5305" x="709.4" y="808.262">&#54032;&#51221; &#44540;&#44144; &#183; &#49548;&#49828; &#54596;&#53552;</text></g><!--entity CRULES--><g class="entity" data-qualified-name="Vuln.CRULES" data-source-line="23" id="ent0012"><rect fill="#FFFFFF" height="52.5938" rx="2.5" ry="2.5" style="stroke:#6E7681;stroke-width:0.5;" width="177.5684" x="458.39" y="655.37"/><text fill="#000000" font-family="sans-serif" font-size="14" lengthAdjust="spacing" textLength="157.5684" x="468.39" y="678.3651">/compliance_rules.php</text><text fill="#000000" font-family="sans-serif" font-size="14" lengthAdjust="spacing" textLength="87.86" x="468.39" y="694.662">&#48372;&#50504; &#49444;&#51221; &#44592;&#51456;</text></g><!--entity CRULE--><g class="entity" data-qualified-name="Vuln.CRULE" data-source-line="24" id="ent0013"><rect fill="#FFFFFF" height="52.5938" rx="2.5" ry="2.5" style="stroke:#6E7681;stroke-width:0.5;" width="198.4795" x="139.93" y="768.97"/><text fill="#000000" font-family="sans-serif" font-size="14" lengthAdjust="spacing" textLength="150.2744" x="149.93" y="791.9651">/compliance_rule.php</text><text fill="#000000" font-family="sans-serif" font-size="14" lengthAdjust="spacing" textLength="178.4795" x="149.93" y="808.262">SSG &#47344; &#49345;&#49464; &#183; &#51216;&#44160;/&#51312;&#52824; &#44540;&#44144;</text></g><!--entity ADV--><g class="entity" data-qualified-name="Vuln.ADV" data-source-line="25" id="ent0014"><rect fill="#FFFFFF" height="52.5938" rx="2.5" ry="2.5" style="stroke:#6E7681;stroke-width:0.5;" width="235.5713" x="910.38" y="655.37"/><text fill="#000000" font-family="sans-serif" font-size="14" lengthAdjust="spacing" textLength="215.5713" x="920.38" y="678.3651">/advisories.php &#183; /advisory.php</text><text fill="#000000" font-family="sans-serif" font-size="14" lengthAdjust="spacing" textLength="161.3274" x="920.38" y="694.662">&#48372;&#50504; &#44277;&#51648;(KISA) &#47785;&#47197;&#183;&#49345;&#49464;</text></g><!--entity ASSETS--><g class="entity" data-qualified-name="Quick.ASSETS" data-source-line="29" id="ent0016"><rect fill="#FFFFFF" height="52.5938" rx="2.5" ry="2.5" style="stroke:#6E7681;stroke-width:0.5;" width="100.377" x="1577.98" y="339.18"/><text fill="#000000" font-family="sans-serif" font-size="14" lengthAdjust="spacing" textLength="80.377" x="1587.98" y="362.1751">/assets.php</text><text fill="#000000" font-family="sans-serif" font-size="14" lengthAdjust="spacing" textLength="26.3199" x="1587.98" y="378.472">&#51088;&#49328;</text></g><!--entity CONN--><g class="entity" data-qualified-name="Quick.CONN" data-source-line="30" id="ent0017"><rect fill="#FFFFFF" height="52.5938" rx="2.5" ry="2.5" style="stroke:#6E7681;stroke-width:0.5;" width="133.2373" x="1409.55" y="339.18"/><text fill="#000000" font-family="sans-serif" font-size="14" lengthAdjust="spacing" textLength="113.2373" x="1419.55" y="362.1751">/connectors.php</text><text fill="#000000" font-family="sans-serif" font-size="14" lengthAdjust="spacing" textLength="70.2499" x="1419.55" y="378.472">&#45936;&#51060;&#53552; &#49688;&#51665;</text></g><!--entity USERS--><g class="entity" data-qualified-name="Admin.USERS" data-source-line="34" id="ent0019"><rect fill="#FFFFFF" height="52.5938" rx="2.5" ry="2.5" style="stroke:#6E7681;stroke-width:0.5;" width="93.6436" x="1906.35" y="507.78"/><text fill="#000000" font-family="sans-serif" font-size="14" lengthAdjust="spacing" textLength="73.6436" x="1916.35" y="530.7751">/users.php</text><text fill="#000000" font-family="sans-serif" font-size="14" lengthAdjust="spacing" textLength="39.4798" x="1916.35" y="547.072">&#49324;&#50857;&#51088;</text></g><!--entity PERM--><g class="entity" data-qualified-name="Admin.PERM" data-source-line="35" id="ent0020"><rect fill="#DB6D28" height="52.5938" rx="2.5" ry="2.5" style="stroke:#6E7681;stroke-width:0.5;" width="139.8066" x="1425.27" y="507.78"/><text fill="#000000" font-family="sans-serif" font-size="14" lengthAdjust="spacing" textLength="119.8066" x="1435.27" y="530.7751">/permissions.php</text><text fill="#000000" font-family="sans-serif" font-size="14" lengthAdjust="spacing" textLength="26.3199" x="1435.27" y="547.072">&#44428;&#54620;</text></g><!--entity ATOK--><g class="entity" data-qualified-name="Admin.ATOK" data-source-line="36" id="ent0021"><rect fill="#FFFFFF" height="52.5938" rx="2.5" ry="2.5" style="stroke:#6E7681;stroke-width:0.5;" width="148.249" x="1242.05" y="507.78"/><text fill="#000000" font-family="sans-serif" font-size="14" lengthAdjust="spacing" textLength="128.249" x="1252.05" y="530.7751">/agent-tokens.php</text><text fill="#000000" font-family="sans-serif" font-size="14" lengthAdjust="spacing" textLength="70.2499" x="1252.05" y="547.072">&#50640;&#51060;&#51204;&#53944; &#53412;</text></g><!--entity TOK--><g class="entity" data-qualified-name="Admin.TOK" data-source-line="37" id="ent0022"><rect fill="#DB6D28" height="52.5938" rx="2.5" ry="2.5" style="stroke:#6E7681;stroke-width:0.5;" width="129.1631" x="1742.59" y="507.78"/><text fill="#000000" font-family="sans-serif" font-size="14" lengthAdjust="spacing" textLength="109.1631" x="1752.59" y="530.7751">/api-tokens.php</text><text fill="#000000" font-family="sans-serif" font-size="14" lengthAdjust="spacing" textLength="39.7586" x="1752.59" y="547.072">API &#53412;</text></g><!--entity ACT--><g class="entity" data-qualified-name="Admin.ACT" data-source-line="38" id="ent0023"><rect fill="#FFFFFF" height="52.5938" rx="2.5" ry="2.5" style="stroke:#6E7681;stroke-width:0.5;" width="107.418" x="1600.46" y="507.78"/><text fill="#000000" font-family="sans-serif" font-size="14" lengthAdjust="spacing" textLength="87.418" x="1610.46" y="530.7751">/activity.php</text><text fill="#000000" font-family="sans-serif" font-size="14" lengthAdjust="spacing" textLength="57.09" x="1610.46" y="547.072">&#44048;&#49324; &#47196;&#44536;</text></g><!--entity ING--><g class="entity" data-qualified-name="API.ING" data-source-line="42" id="ent0025"><rect fill="#238636" height="52.5938" rx="2.5" ry="2.5" style="stroke:#6E7681;stroke-width:0.5;" width="194.2853" x="1467.03" y="41"/><text fill="#000000" font-family="sans-serif" font-size="14" lengthAdjust="spacing" textLength="78.8594" x="1477.03" y="63.9951">/ingest.php</text><text fill="#000000" font-family="sans-serif" font-size="14" lengthAdjust="spacing" textLength="174.2853" x="1477.03" y="80.292">&#49688;&#51665; &#49688;&#49888; &#183; X-Agent-Token</text></g><!--entity EXP--><g class="entity" data-qualified-name="API.EXP" data-source-line="43" id="ent0026"><rect fill="#238636" height="52.5938" rx="2.5" ry="2.5" style="stroke:#6E7681;stroke-width:0.5;" width="274.4587" x="1695.94" y="41"/><text fill="#000000" font-family="sans-serif" font-size="14" lengthAdjust="spacing" textLength="81.4092" x="1705.94" y="63.9951">/export.php</text><text fill="#000000" font-family="sans-serif" font-size="14" lengthAdjust="spacing" textLength="254.4587" x="1705.94" y="80.292">&#44208;&#44284; &#45236;&#48372;&#45236;&#44592; JSON/XML &#183; X-API-Token</text></g><!--entity LOGIN--><g class="entity" data-qualified-name="LOGIN" data-source-line="10" id="ent0001"><rect fill="#1F6FEB" height="52.5938" rx="2.5" ry="2.5" style="stroke:#6E7681;stroke-width:0.5;" width="140.0429" x="1164.15" y="41"/><text fill="#000000" font-family="sans-serif" font-size="14" lengthAdjust="spacing" textLength="69.918" x="1174.15" y="63.9951">/login.php</text><text fill="#000000" font-family="sans-serif" font-size="14" lengthAdjust="spacing" textLength="120.0429" x="1174.15" y="80.292">&#49464;&#49496; &#47196;&#44536;&#51064; &#183; CSRF</text></g><!--entity DASH--><g class="entity" data-qualified-name="DASH" data-source-line="11" id="ent0002"><rect fill="#FFFFFF" height="52.5938" rx="2.5" ry="2.5" style="stroke:#6E7681;stroke-width:0.5;" width="208.7623" x="1129.79" y="172.59"/><text fill="#000000" font-family="sans-serif" font-size="14" lengthAdjust="spacing" textLength="61.8068" x="1139.79" y="195.5851">/ &#45824;&#49884;&#48372;&#46300;</text><text fill="#000000" font-family="sans-serif" font-size="14" lengthAdjust="spacing" textLength="188.7623" x="1139.79" y="211.882">&#54840;&#49828;&#53944;&#48324; &#52572;&#49888;&#49828;&#52884; &#183; &#49900;&#44033;&#46020; KPI</text></g><!--entity HOST--><g class="entity" data-qualified-name="HOST" data-source-line="12" id="ent0003"><rect fill="#FFFFFF" height="68.8906" rx="2.5" ry="2.5" style="stroke:#6E7681;stroke-width:0.5;" width="230.9404" x="316.7" y="331.04"/><text fill="#000000" font-family="sans-serif" font-size="14" lengthAdjust="spacing" textLength="66.0352" x="326.7" y="354.0351">/host.php</text><text fill="#000000" font-family="sans-serif" font-size="14" lengthAdjust="spacing" textLength="210.9404" x="326.7" y="370.332">&#54840;&#49828;&#53944; &#49345;&#49464; &#183; &#45432;&#52636;&#183;&#54532;&#47196;&#49464;&#49828;&#183;&#52712;&#50557;&#51216;</text><text fill="#000000" font-family="sans-serif" font-size="14" lengthAdjust="spacing" textLength="189.7178" x="326.7" y="386.6289">+ CCE &#51216;&#44160; &#183; &#48177;&#54252;&#53944; &#50613;&#51228; &#45236;&#50669;</text></g><!--entity PROF--><g class="entity" data-qualified-name="PROF" data-source-line="14" id="ent0004"><rect fill="#FFFFFF" height="52.5938" rx="2.5" ry="2.5" style="stroke:#6E7681;stroke-width:0.5;" width="204.6205" x="976.86" y="339.18"/><text fill="#000000" font-family="sans-serif" font-size="14" lengthAdjust="spacing" textLength="80.3428" x="986.86" y="362.1751">/profile.php</text><text fill="#000000" font-family="sans-serif" font-size="14" lengthAdjust="spacing" textLength="184.6205" x="986.86" y="378.472">&#45236; &#54532;&#47196;&#54596; &#183; &#48376;&#51064; &#48708;&#48128;&#48264;&#54840; &#48320;&#44221;</text></g><!--link LOGIN to DASH--><g class="link" data-entity-1="ent0001" data-entity-2="ent0002" data-link-type="dependency" data-source-line="46" id="lnk27"><path d="M1234.17,93.9 C1234.17,116.62 1234.17,144.63 1234.17,167.34" fill="none" id="LOGIN-to-DASH" style="stroke:#181818;stroke-width:1;"/><polygon fill="#181818" points="1234.17,172.34,1238.17,163.34,1234.17,167.34,1230.17,163.34,1234.17,172.34" style="stroke:#181818;stroke-width:1;stroke-linejoin:miter;stroke-miterlimit:10;"/><text fill="#000000" font-family="sans-serif" font-size="13" lengthAdjust="spacing" textLength="53.0124" x="1235.17" y="138.6569">&#51064;&#51613; &#49457;&#44277;</text></g><!--link DASH to PROF--><g class="link" data-entity-1="ent0002" data-entity-2="ent0004" data-link-type="dependency" data-source-line="47" id="lnk28"><path d="M1137.96,225.67 C1123.61,233.16 1110.28,242.81 1100.17,255.18 C1080.86,278.83 1077.3548,309.9301 1077.5248,334.0901" fill="none" id="DASH-to-PROF" style="stroke:#181818;stroke-width:1;"/><polygon fill="#181818" points="1077.56,339.09,1081.4966,330.0621,1077.5248,334.0901,1073.4968,330.1184,1077.56,339.09" style="stroke:#181818;stroke-width:1;stroke-linejoin:miter;stroke-miterlimit:10;"/><text fill="#000000" font-family="sans-serif" font-size="13" lengthAdjust="spacing" textLength="106.0248" x="1101.17" y="268.2469">&#49345;&#45800;&#48148; &#49324;&#50857;&#51088; &#47700;&#45684;</text></g><!--link DASH to HOST--><g class="link" data-entity-1="ent0002" data-entity-2="ent0003" data-link-type="dependency" data-source-line="49" id="lnk29"><path d="M1129.32,221.41 C979.23,252.21 708.9679,307.6749 552.9779,339.6849" fill="none" id="DASH-to-HOST" style="stroke:#181818;stroke-width:1;"/><polygon fill="#181818" points="548.08,340.69,557.7004,342.7992,552.9779,339.6849,556.0922,334.9625,548.08,340.69" style="stroke:#181818;stroke-width:1;stroke-linejoin:miter;stroke-miterlimit:10;"/></g><!--link HOST to FIND--><g class="link" data-entity-1="ent0003" data-entity-2="ent0006" data-link-type="dependency" data-source-line="50" id="lnk30"><path d="M432.17,400.19 C432.17,431.86 432.17,473.54 432.17,502.32" fill="none" id="HOST-to-FIND" style="stroke:#181818;stroke-width:1;"/><polygon fill="#181818" points="432.17,507.32,436.17,498.32,432.17,502.32,428.17,498.32,432.17,507.32" style="stroke:#181818;stroke-width:1;stroke-linejoin:miter;stroke-miterlimit:10;"/></g><!--link FIND to CVE--><g class="link" data-entity-1="ent0006" data-entity-2="ent0009" data-link-type="dependency" data-source-line="51" id="lnk31"><path d="M382.58,560.77 C331.37,587.3 256.3692,626.1593 205.1792,652.6893" fill="none" id="FIND-to-CVE" style="stroke:#181818;stroke-width:1;"/><polygon fill="#181818" points="200.74,654.99,210.5712,654.4001,205.1792,652.6893,206.8901,647.2974,200.74,654.99" style="stroke:#181818;stroke-width:1;stroke-linejoin:miter;stroke-miterlimit:10;"/></g><!--link FIND to CHG--><g class="link" data-entity-1="ent0006" data-entity-2="ent0007" data-link-type="dependency" data-source-line="52" id="lnk32"><path d="M492.35,560.77 C554.49,587.3 646.2917,626.4965 708.4217,653.0265" fill="none" id="FIND-to-CHG" style="stroke:#181818;stroke-width:1;"/><polygon fill="#181818" points="713.02,654.99,706.3138,647.777,708.4217,653.0265,703.1722,655.1343,713.02,654.99" style="stroke:#181818;stroke-width:1;stroke-linejoin:miter;stroke-miterlimit:10;"/><text fill="#000000" font-family="sans-serif" font-size="13" lengthAdjust="spacing" textLength="36.66" x="644.24" y="621.4369">&#49436;&#48652;&#53485;</text></g><!--link HOST to CRULE--><g class="link" data-entity-1="ent0003" data-entity-2="ent0013" data-link-type="dependency" data-source-line="53" id="lnk33"><path d="M340.71,400.34 C240.93,442.82 86.47,526.16 19.17,655.37 C8.37,676.1 6,688.65 19.17,707.97 C46.33,747.79 90.0596,767.9868 134.6696,779.5368" fill="none" id="HOST-to-CRULE" style="stroke:#181818;stroke-width:1;"/><polygon fill="#181818" points="139.51,780.79,131.7999,774.6619,134.6696,779.5368,129.7947,782.4065,139.51,780.79" style="stroke:#181818;stroke-width:1;stroke-linejoin:miter;stroke-miterlimit:10;"/><text fill="#000000" font-family="sans-serif" font-size="13" lengthAdjust="spacing" textLength="83.5129" x="49.01" y="621.4369">CCE &#44540;&#44144; &#48176;&#51648;</text></g><!--link CRULES to CRULE--><g class="link" data-entity-1="ent0012" data-entity-2="ent0013" data-link-type="dependency" data-source-line="54" id="lnk34"><path d="M476.12,708.41 C426.29,726.47 364.6412,748.8073 314.8312,766.8473" fill="none" id="CRULES-to-CRULE" style="stroke:#181818;stroke-width:1;"/><polygon fill="#181818" points="310.13,768.55,319.9542,769.2462,314.8312,766.8473,317.23,761.7243,310.13,768.55" style="stroke:#181818;stroke-width:1;stroke-linejoin:miter;stroke-miterlimit:10;"/></g><!--link FIND to PKG--><!--link CHG to VEND--><!--link FIND to CRULES--><!--link CVES to ADV--><!--link DASH to Vuln--><g class="link" data-entity-1="ent0002" data-entity-2="ent0005" data-link-type="dependency" data-source-line="62" id="lnk39"><path d="M1231.4,225.48 C1226.51,268.42 1215.32,357.58 1199.17,431.78 C1194.345,453.945 1187.39,478.4025 1181.5,497.7312 C1180.7638,500.1473 1180.0441,502.4833 1179.3474,504.7246 C1178.999,505.8453 1178.6564,506.9423 1178.3203,508.0138 C1178.2782,508.1478 1179.7344,503.511 1179.6926,503.6442" fill="none" id="DASH-to-Vuln" style="stroke:#181818;stroke-width:1;stroke-dasharray:7,7;"/><polygon fill="#181818" points="1178.1945,508.4145,1184.7073,501.0264,1179.6926,503.6442,1177.0749,498.6294,1178.1945,508.4145" style="stroke:#181818;stroke-width:1;stroke-linejoin:miter;stroke-miterlimit:10;"/></g><!--link DASH to Quick--><g class="link" data-entity-1="ent0002" data-entity-2="ent0015" data-link-type="dependency" data-source-line="63" id="lnk40"><path d="M1338.84,205.05 C1458.43,213.13 1644.11,233.05 1694.17,280.18 C1697.565,283.3775 1700.4311,287.0367 1702.8466,290.9989 C1703.4505,291.9895 1704.0262,292.999 1704.5749,294.0249 C1704.8493,294.5379 1705.117,295.055 1705.378,295.5759 C1705.4433,295.7061 1703.2968,313.649 1703.3613,313.7797" fill="none" id="DASH-to-Quick" style="stroke:#181818;stroke-width:1;stroke-dasharray:7,7;"/><polygon fill="#181818" points="1705.5726,318.2642,1705.1798,308.4231,1703.3613,313.7797,1698.0047,311.9612,1705.5726,318.2642" style="stroke:#181818;stroke-width:1;stroke-linejoin:miter;stroke-miterlimit:10;"/></g><!--link DASH to Admin--><g class="link" data-entity-1="ent0002" data-entity-2="ent0018" data-link-type="dependency" data-source-line="64" id="lnk41"><path d="M1339.03,200 C1434.33,202.98 1577.58,214.77 1695.17,255.18 C1852.73,309.34 1918.7,313.66 2016.17,448.78 C2018.8913,452.5513 2021.232,456.6453 2023.2446,460.9287 C2023.7477,461.9995 2024.2304,463.0822 2024.6933,464.1746 C2024.7511,464.3112 2022.879,482.1321 2022.9363,482.269" fill="none" id="DASH-to-Admin" style="stroke:#181818;stroke-width:1;stroke-dasharray:7,7;"/><polygon fill="#181818" points="2024.866,486.8816,2025.0826,477.0351,2022.9363,482.269,2017.7024,480.1226,2024.866,486.8816" style="stroke:#181818;stroke-width:1;stroke-linejoin:miter;stroke-miterlimit:10;"/></g><!--link ASSETS to USERS--><!--link CONN to ATOK--><!--link CONN to ACT--><?plantuml-src TLPTJnjN47tVNp4A3p6gi9L48YaFaQXnm8K0nGH5QghAyQvXXTcrTWrfLLKoi449k8hJsE2sTkIeJWYL8orWiAd82_qdUTnxzpzqxhrhhnqxF5ZSZpaxSsRcpBqE6-ifRII-h6WPk3eS1VhN1RX_5CXH0vopEhME8K2twhJIS7TRvF0Chff0AotwhZ8iNSVBUNBQ6WDPJvWXMTa8nOt4YffH4fbrGmckoHmniAOOQt5LXcHAVv9OYHiPM9mObYHpLTNISIE-1WOQnBNbb0A_I81_tyGJgyk6lgx9OJsb6p2Kv7_YJ3TanV3sHvNRetTkIBzsOPahSLb_echBa8odJ4MIVF1hePI-h6h1z4hwaKQj5drQ0lAcx3HR614BB1nRk7SDuYRCp4r6Ps7eHd8qgJpkGG2IozAzCZbja5VbHvfRQj7T6gFcr09wLgPxLLpJVmkSfxswOs-I5nPCpqSvxiHuRAe7RaKtCyAV3XBGxKrqZW6GforwNhvgkWKB_MGUxzQkchJvdXO_qch-aVOLXCCHm7-Taomti8_T5tKEidz6gsKWMmrwy85_UsekjiXInfE9pXExWFVtuLEsm3v9zjwp7NRyvn5zdGToL23F6y4kXlmpMhKmzG5n1Pppd5ii0ptOePNSSB0dmBIX9zMK8c94Rq34uXOjxkyf1oON5h6pvEGPae1xMUVa8tTvVc7kdYIbiHgmFk5Q9t08fB6anY2fQZ9cseGGnEKDrTGDLJ67kUaILhLNJTtkj2qyphVpz30Bpedjd5uoVv16klqyXDwvbirnxaLd9_fGi8YrPSK3GN-nNu2U5sXrKwIzwZJB2D90u11vTUoqddS55PwQx0VSQAE5bo90_ZaYRoeCojt-461SdpH2qv6bK6G-5kFbKRP4b7WxDWZCn_ABYPOstVstRkwzkrLZKVDoAJidTK0uUb5g0_RXUVotEUi0_7U003QhjrnUf6kwFx8DHPDressQfzKYECrBvzZcBktaiAAXY-wbo22wzRLqIerh2UL7OptbyzwWnMT0hHe7RTcqbXKnB3oO6KHBBue0YSKcWVnjTzF4cob4tzZ8YUUh3zk7wjST0sG0xQsVUznqJi-Giy1qD3O-x2KOEvb_bQEFJooXZFcrZht86i_EOc0GS8iVyAwd1oBrtwshYTK15HutJINZKOIjIhU4z-EnM6Hn42cQXalTQ9Fwcysata96dfNeuKiH-TpiR8zpJYDBtjK5hhoc3cgqTLDfOtPaWniyY4KM-lrW_QoQfgfhdf7G555MaONxC2G_7fLltkaFbmskaOo-ghGjwK4UGy2kOJA8fIhSN9oRxhTDgpsMu_FHZW7U__8t4nbrGyru2NPi9BdkoQJuM7YnXounByV0tQcwcpORf-HrpjTLfZtat496HMQP6_s4gannl5aXSiDJj5TbDVTmP9ppiCYYuI3HsKaOkddhpkYjqJuevQUqRdXGdlQXChEHjjLWvVPjR6uszF3-Z8Sy7-t2ZJoSx-1YZ69GZepSvQCDnhot0NRbCLQyn3VPALDoTlh5EIFvT_cWOZzynGMO_V0LqoT_CJN9CAqoQULGANqRtgfun8QZfpQeLDX_aj06_vB49c9dh8Xt3rOFVEtOPLAv13xNQcnY0NcPvu-YPekyksHtQ6c7bY_PaTDgqNqiEHoHbO-CGLoHwXdPgy6ddT-PPHk4Lb-ItG8U19WkO9cYZjBYBkvn3ozAI0f6LCKfAiByVaMLPKNx0TyqsWXNM1Rrv_jSDWSPU5h8viJdHqnn1Ed1u5q-B_qL5nT_oPkSKOMF7rQfRqieJ71x04Ux9HRwpYj6J0zPtfCI7nmUPsGBGQmsHRHeaTUbFfQ2aj2jptqN8i9q2VguuAt-XIDipFy1?></g></svg>