<svg xmlns="http://www.w3.org/2000/svg" xmlns:xlink="http://www.w3.org/1999/xlink" contentStyleType="text/css" data-diagram-type="DESCRIPTION" height="764px" preserveAspectRatio="none" style="width:2082px;height:764px;background:#FFFFFF;" version="1.1" viewBox="0 0 2082 764" width="2082px" zoomAndPan="magnify"><?plantuml 1.2026.6?><defs/><g><!--cluster Src--><g class="cluster" data-qualified-name="Src" data-source-line="16" id="ent0001"><path d="M448.5,6 L721.3372,6 A3.75,3.75 0 0 1 723.8372,8.5 L730.8372,28.2969 L1513.5,28.2969 A2.5,2.5 0 0 1 1516,30.7969 L1516,116.09 A2.5,2.5 0 0 1 1513.5,118.59 L448.5,118.59 A2.5,2.5 0 0 1 446,116.09 L446,8.5 A2.5,2.5 0 0 1 448.5,6" fill="none" style="stroke:#000000;stroke-width:1.5;"/><line style="stroke:#000000;stroke-width:1.5;" x1="446" x2="730.8372" y1="28.2969" y2="28.2969"/><text fill="#000000" font-family="sans-serif" font-size="14" font-weight="700" lengthAdjust="spacing" textLength="271.8372" x="450" y="20.9951">&#49688;&#51665;&#47932; &#8212; &#51060;&#48120; &#45796;&#47480; &#54028;&#51060;&#54532;&#46972;&#51064;&#51060; &#52292;&#50892; &#46164; &#44163;</text></g><!--cluster Ctl--><g class="cluster" data-qualified-name="Ctl" data-source-line="25" id="ent0007"><path d="M628.5,177.39 L973.4662,177.39 A3.75,3.75 0 0 1 975.9662,179.89 L982.9662,199.6869 L1654.5,199.6869 A2.5,2.5 0 0 1 1657,202.1869 L1657,294.78 A2.5,2.5 0 0 1 1654.5,297.28 L628.5,297.28 A2.5,2.5 0 0 1 626,294.78 L626,179.89 A2.5,2.5 0 0 1 628.5,177.39" fill="none" style="stroke:#000000;stroke-width:1.5;"/><line style="stroke:#000000;stroke-width:1.5;" x1="626" x2="982.9662" y1="199.6869" y2="199.6869"/><text fill="#000000" font-family="sans-serif" font-size="14" font-weight="700" lengthAdjust="spacing" textLength="343.9662" x="630" y="192.3851">&#51088;&#46041;&#54032;&#51221; &#53685;&#51228; 4&#51333; &#8212; &#54032;&#51221;&#51012; &#49352;&#47196; &#51676;&#51648; &#50506;&#44256; &#51665;&#44228;&#47564; &#54620;&#45796;</text></g><!--cluster Fw--><g class="cluster" data-qualified-name="Fw" data-source-line="49" id="ent0022"><path d="M8.5,181.04 L370.4892,181.04 A3.75,3.75 0 0 1 372.9892,183.54 L379.9892,203.3369 L599.5,203.3369 A2.5,2.5 0 0 1 602,205.8369 L602,458.97 A2.5,2.5 0 0 1 599.5,461.47 L8.5,461.47 A2.5,2.5 0 0 1 6,458.97 L6,183.54 A2.5,2.5 0 0 1 8.5,181.04" fill="none" style="stroke:#000000;stroke-width:1.5;"/><line style="stroke:#000000;stroke-width:1.5;" x1="6" x2="379.9892" y1="203.3369" y2="203.3369"/><text fill="#000000" font-family="sans-serif" font-size="14" font-weight="700" lengthAdjust="spacing" textLength="360.9892" x="10" y="196.0351">&#44592;&#51456;&#48324;&#47196; &#48148;&#45012; &#45180;&#50892; &#48372;&#44592; &#8212; &#54032;&#51221;&#51008; &#44536;&#45824;&#47196;, &#51060;&#47492;&#54364;&#47564; &#48148;&#45072;&#45796;</text></g><!--entity F--><g class="entity" data-qualified-name="Src.F" data-source-line="17" id="ent0002"><path d="M724.1,51 C724.1,41 834.0019,41 834.0019,41 C834.0019,41 943.9039,41 943.9039,51 L943.9039,92.5938 C943.9039,102.5938 834.0019,102.5938 834.0019,102.5938 C834.0019,102.5938 724.1,102.5938 724.1,92.5938 L724.1,51" fill="#FFFFFF" style="stroke:#181818;stroke-width:0.5;"/><path d="M724.1,51 C724.1,61 834.0019,61 834.0019,61 C834.0019,61 943.9039,61 943.9039,51" fill="none" style="stroke:#181818;stroke-width:0.5;"/><text fill="#000000" font-family="sans-serif" font-size="14" lengthAdjust="spacing" textLength="69.6035" x="734.1" y="77.9951">tb_finding</text><text fill="#000000" font-family="sans-serif" font-size="14" lengthAdjust="spacing" textLength="199.8039" x="734.1" y="94.292">&#47588;&#52376; &#54032;&#51221;(&#49900;&#44033;&#46020;&#183;&#52572;&#52488; &#48156;&#44204; &#49884;&#44033;)</text></g><!--entity H--><g class="entity" data-qualified-name="Src.H" data-source-line="18" id="ent0003"><path d="M979.03,51 C979.03,41 1089.0026,41 1089.0026,41 C1089.0026,41 1198.9751,41 1198.9751,51 L1198.9751,92.5938 C1198.9751,102.5938 1089.0026,102.5938 1089.0026,102.5938 C1089.0026,102.5938 979.03,102.5938 979.03,92.5938 L979.03,51" fill="#FFFFFF" style="stroke:#181818;stroke-width:0.5;"/><path d="M979.03,51 C979.03,61 1089.0026,61 1089.0026,61 C1089.0026,61 1198.9751,61 1198.9751,51" fill="none" style="stroke:#181818;stroke-width:0.5;"/><text fill="#000000" font-family="sans-serif" font-size="14" lengthAdjust="spacing" textLength="118.7676" x="989.03" y="77.9951">tb_host &#183; tb_scan</text><text fill="#000000" font-family="sans-serif" font-size="14" lengthAdjust="spacing" textLength="199.9451" x="989.03" y="94.292">&#50672;&#44208;&#49345;&#53468; &#183; OS/IP &#183; &#48512;&#48516;&#49688;&#51665; &#50668;&#48512;</text></g><!--entity C--><g class="entity" data-qualified-name="Src.C" data-source-line="19" id="ent0004"><path d="M462.48,51 C462.48,41 575.9981,41 575.9981,41 C575.9981,41 689.5163,41 689.5163,51 L689.5163,92.5938 C689.5163,102.5938 575.9981,102.5938 575.9981,102.5938 C575.9981,102.5938 462.48,102.5938 462.48,92.5938 L462.48,51" fill="#FFFFFF" style="stroke:#181818;stroke-width:0.5;"/><path d="M462.48,51 C462.48,61 575.9981,61 575.9981,61 C575.9981,61 689.5163,61 689.5163,51" fill="none" style="stroke:#181818;stroke-width:0.5;"/><text fill="#000000" font-family="sans-serif" font-size="14" lengthAdjust="spacing" textLength="100.6113" x="472.48" y="77.9951">tb_cce_finding</text><text fill="#000000" font-family="sans-serif" font-size="14" lengthAdjust="spacing" textLength="207.0363" x="472.48" y="94.292">CCE 39&#44060; &#51216;&#44160;&#51032; PASS/FAIL/NA</text></g><!--entity A--><g class="entity" data-qualified-name="Src.A" data-source-line="20" id="ent0005"><path d="M1233.71,51 C1233.71,41 1367.0015,41 1367.0015,41 C1367.0015,41 1500.2929,41 1500.2929,51 L1500.2929,92.5938 C1500.2929,102.5938 1367.0015,102.5938 1367.0015,102.5938 C1367.0015,102.5938 1233.71,102.5938 1233.71,92.5938 L1233.71,51" fill="#FFFFFF" style="stroke:#181818;stroke-width:0.5;"/><path d="M1233.71,51 C1233.71,61 1367.0015,61 1367.0015,61 C1367.0015,61 1500.2929,61 1500.2929,51" fill="none" style="stroke:#181818;stroke-width:0.5;"/><text fill="#000000" font-family="sans-serif" font-size="14" lengthAdjust="spacing" textLength="114.3721" x="1243.71" y="77.9951">tb_host_account</text><text fill="#000000" font-family="sans-serif" font-size="14" lengthAdjust="spacing" textLength="246.5829" x="1243.71" y="94.292">&#44228;&#51221; &#51064;&#48292;&#53664;&#47532;(&#51104;&#44552;&#183;sudo&#183;&#55092;&#47732;&#183;&#48120;&#47196;&#44536;&#51064;)</text></g><!--entity P1--><g class="entity" data-qualified-name="Ctl.P1" data-source-line="26" id="ent0008"><rect fill="#FFFFFF" height="68.8906" rx="2.5" ry="2.5" style="stroke:#6E7681;stroke-width:0.5;" width="194.8496" x="921.58" y="212.39"/><text fill="#000000" font-family="sans-serif" font-size="14" lengthAdjust="spacing" textLength="69.6407" x="931.58" y="235.3851">&#9312; &#54056;&#52824;&#44288;&#47532;</text><text fill="#000000" font-family="sans-serif" font-size="14" lengthAdjust="spacing" textLength="174.8496" x="931.58" y="251.682">ISMS-P 2.10.8 / ISO A.8.8</text><text fill="#000000" font-family="sans-serif" font-size="14" lengthAdjust="spacing" textLength="174.0954" x="931.58" y="267.9789">SLA &#52488;&#44284;&#54620; &#48120;&#51312;&#52824; findings</text></g><!--entity P2--><g class="entity" data-qualified-name="Ctl.P2" data-source-line="27" id="ent0009"><rect fill="#FFFFFF" height="68.8906" rx="2.5" ry="2.5" style="stroke:#6E7681;stroke-width:0.5;" width="218.325" x="1151.84" y="212.39"/><text fill="#000000" font-family="sans-serif" font-size="14" lengthAdjust="spacing" textLength="100.4108" x="1161.84" y="235.3851">&#9313; &#51221;&#48372;&#51088;&#49328; &#49885;&#48324;</text><text fill="#000000" font-family="sans-serif" font-size="14" lengthAdjust="spacing" textLength="165.9424" x="1161.84" y="251.682">ISMS-P 1.2.1 / ISO A.5.9</text><text fill="#000000" font-family="sans-serif" font-size="14" lengthAdjust="spacing" textLength="198.325" x="1161.84" y="267.9789">&#50724;&#54532;&#46972;&#51064;&#183;&#49688;&#51665;&#50630;&#51020; + OS/IP &#45572;&#46973;</text></g><!--entity P3--><g class="entity" data-qualified-name="Ctl.P3" data-source-line="28" id="ent0010"><rect fill="#FFFFFF" height="68.8906" rx="2.5" ry="2.5" style="stroke:#6E7681;stroke-width:0.5;" width="244.733" x="641.63" y="212.39"/><text fill="#000000" font-family="sans-serif" font-size="14" lengthAdjust="spacing" textLength="113.5708" x="651.63" y="235.3851">&#9314; &#48372;&#50504;&#49884;&#49828;&#53596; &#50868;&#50689;</text><text fill="#000000" font-family="sans-serif" font-size="14" lengthAdjust="spacing" textLength="96.4551" x="651.63" y="251.682">ISMS-P 2.10.1</text><text fill="#000000" font-family="sans-serif" font-size="14" lengthAdjust="spacing" textLength="224.733" x="651.63" y="267.9789">tb_cce_finding.result='FAIL' &#51665;&#44228;</text></g><!--entity P4--><g class="entity" data-qualified-name="Ctl.P4" data-source-line="29" id="ent0011"><rect fill="#FFFFFF" height="68.8906" rx="2.5" ry="2.5" style="stroke:#6E7681;stroke-width:0.5;" width="236.2435" x="1404.88" y="212.39"/><text fill="#000000" font-family="sans-serif" font-size="14" lengthAdjust="spacing" textLength="74.0909" x="1414.88" y="235.3851">&#9315; &#44228;&#51221; &#44288;&#47532;</text><text fill="#000000" font-family="sans-serif" font-size="14" lengthAdjust="spacing" textLength="165.9424" x="1414.88" y="251.682">ISMS-P 2.5.1 / ISO A.9.2</text><text fill="#000000" font-family="sans-serif" font-size="14" lengthAdjust="spacing" textLength="216.2435" x="1414.88" y="267.9789">vg_account_judgments() &#51116;&#49324;&#50857;</text></g><!--entity CM--><g class="entity" data-qualified-name="Fw.CM" data-source-line="50" id="ent0023"><path d="M321.35,226.04 C321.35,216.04 449.9987,216.04 449.9987,216.04 C449.9987,216.04 578.6474,216.04 578.6474,226.04 L578.6474,267.6338 C578.6474,277.6338 449.9987,277.6338 449.9987,277.6338 C449.9987,277.6338 321.35,277.6338 321.35,267.6338 L321.35,226.04" fill="#FFFFFF" style="stroke:#181818;stroke-width:0.5;"/><path d="M321.35,226.04 C321.35,236.04 449.9987,236.04 449.9987,236.04 C449.9987,236.04 578.6474,236.04 578.6474,226.04" fill="none" style="stroke:#181818;stroke-width:0.5;"/><text fill="#000000" font-family="sans-serif" font-size="14" lengthAdjust="spacing" textLength="138.8516" x="331.35" y="253.0351">tb_control_mapping</text><text fill="#000000" font-family="sans-serif" font-size="14" lengthAdjust="spacing" textLength="237.2974" x="331.35" y="269.332">CCE &#53076;&#46300; &#8594; KISA U / ISMS-P / N2SF</text></g><!--entity CC--><g class="entity" data-qualified-name="Fw.CC" data-source-line="51" id="ent0024"><path d="M49.2,226.04 C49.2,216.04 150.9998,216.04 150.9998,216.04 C150.9998,216.04 252.7996,216.04 252.7996,226.04 L252.7996,267.6338 C252.7996,277.6338 150.9998,277.6338 150.9998,277.6338 C150.9998,277.6338 49.2,277.6338 49.2,267.6338 L49.2,226.04" fill="#FFFFFF" style="stroke:#181818;stroke-width:0.5;"/><path d="M49.2,226.04 C49.2,236.04 150.9998,236.04 150.9998,236.04 C150.9998,236.04 252.7996,236.04 252.7996,226.04" fill="none" style="stroke:#181818;stroke-width:0.5;"/><text fill="#000000" font-family="sans-serif" font-size="14" lengthAdjust="spacing" textLength="128.8984" x="59.2" y="253.0351">tb_control_catalog</text><text fill="#000000" font-family="sans-serif" font-size="14" lengthAdjust="spacing" textLength="98.7087" x="59.2" y="269.332">&#44592;&#48152;&#49884;&#49444; U-&#53076;&#46300;</text><text fill="#000000" font-family="sans-serif" font-size="14" font-weight="700" lengthAdjust="spacing" textLength="80.4408" x="162.3589" y="269.332">72&#44060; = &#48516;&#47784;</text></g><!--entity KU--><g class="entity" data-qualified-name="Fw.KU" data-source-line="52" id="ent0025"><rect fill="#9E6A03" height="68.8906" rx="2.5" ry="2.5" style="stroke:#6E7681;stroke-width:0.5;" width="257.2603" x="22.37" y="376.58"/><text fill="#000000" font-family="sans-serif" font-size="14" lengthAdjust="spacing" textLength="199.2175" x="32.37" y="399.5751">/kisa-u.php &#8212; U-&#53076;&#46300; &#52964;&#48260;&#47532;&#51648;</text><text fill="#000000" font-family="sans-serif" font-size="14" lengthAdjust="spacing" textLength="147.9684" x="32.37" y="415.872">&#45934;&#45716; 21&#44060; vs &#48708;&#45716; 51&#44060;</text><text fill="#000000" font-family="sans-serif" font-size="14" lengthAdjust="spacing" textLength="237.2603" x="32.37" y="432.1689">&#48712; &#52856;&#51060; &#46300;&#47084;&#45208;&#45716; &#44163;&#51060; &#51060; &#54868;&#47732;&#51032; &#44050;&#51060;&#45796;</text></g><!--entity CMAP--><g class="entity" data-qualified-name="Fw.CMAP" data-source-line="53" id="ent0026"><rect fill="#FFFFFF" height="52.5938" rx="2.5" ry="2.5" style="stroke:#6E7681;stroke-width:0.5;" width="271.2891" x="314.36" y="384.72"/><text fill="#000000" font-family="sans-serif" font-size="14" lengthAdjust="spacing" textLength="251.2891" x="324.36" y="407.7151">/control_mapping.php &#183; /control.php</text><text fill="#000000" font-family="sans-serif" font-size="14" lengthAdjust="spacing" textLength="158.3006" x="324.36" y="424.012">&#53685;&#51228; &#44592;&#51456; &#47588;&#54609; &#183; &#53685;&#51228; &#49345;&#49464;</text></g><!--entity POL--><g class="entity" data-qualified-name="POL" data-source-line="23" id="ent0006"><rect fill="#1F6FEB" height="85.1875" rx="2.5" ry="2.5" style="stroke:#6E7681;stroke-width:0.5;" width="346.9956" x="1535.5" y="29.2"/><text fill="#000000" font-family="sans-serif" font-size="14" lengthAdjust="spacing" textLength="261.5316" x="1545.5" y="52.1951">compliance/policy.php &#8212; &#44592;&#51456;&#44050; SSOT</text><text fill="#000000" font-family="sans-serif" font-size="14" lengthAdjust="spacing" textLength="295.5062" x="1545.5" y="68.492">SLA: KEV 15&#51068; &#183; CRITICAL 30&#51068; &#183; HIGH 60&#51068;</text><text fill="#000000" font-family="sans-serif" font-size="14" lengthAdjust="spacing" textLength="258.5595" x="1545.5" y="84.7889">&#52983;&#46972;&#51064;: 1~5&#44148; &#48512;&#48516;&#51456;&#49688; &#183; 6&#44148; &#51060;&#49345; &#48120;&#51456;&#49688;</text><text fill="#000000" font-family="sans-serif" font-size="14" lengthAdjust="spacing" textLength="326.9956" x="1545.5" y="101.0857">(&#51204;&#48512; tb_setting &#51004;&#47196; &#51312;&#51649;&#48324; &#51312;&#51221;, &#50668;&#44592; &#49345;&#49688;&#45716; &#54260;&#48177;)</text></g><!--entity VOCAB--><g class="entity" data-qualified-name="VOCAB" data-source-line="32" id="ent0012"><rect fill="#DB6D28" height="101.4844" rx="2.5" ry="2.5" style="stroke:#6E7681;stroke-width:0.5;" width="273.5009" x="1288.25" y="360.28"/><text fill="#000000" font-family="sans-serif" font-size="14" lengthAdjust="spacing" textLength="253.5009" x="1298.25" y="383.2751">&#54032;&#51221; &#50612;&#55064; 4&#51333; (vg_compliance_status)</text><text fill="#000000" font-family="sans-serif" font-size="14" lengthAdjust="spacing" textLength="177.5088" x="1298.25" y="399.572">&#50948;&#48152; 0&#44148; + &#54032;&#51221; &#48520;&#44032; &#50630;&#51020; &#8594;</text><text fill="#000000" font-family="sans-serif" font-size="14" font-weight="700" lengthAdjust="spacing" textLength="26.3199" x="1480.209" y="399.572">&#51456;&#49688;</text><text fill="#000000" font-family="sans-serif" font-size="14" lengthAdjust="spacing" textLength="177.5088" x="1298.25" y="415.8689">&#50948;&#48152; 0&#44148; + &#54032;&#51221; &#48520;&#44032; &#51080;&#51020; &#8594;</text><text fill="#000000" font-family="sans-serif" font-size="14" font-weight="700" lengthAdjust="spacing" textLength="57.5138" x="1480.209" y="415.8689">&#54032;&#51221; &#48520;&#44032;</text><text fill="#000000" font-family="sans-serif" font-size="14" lengthAdjust="spacing" textLength="89.6556" x="1298.25" y="432.1657">&#50948;&#48152; 1~5&#44148; &#8594;</text><text fill="#000000" font-family="sans-serif" font-size="14" font-weight="700" lengthAdjust="spacing" textLength="52.6398" x="1392.3558" y="432.1657">&#48512;&#48516;&#51456;&#49688;</text><text fill="#000000" font-family="sans-serif" font-size="14" lengthAdjust="spacing" textLength="99.788" x="1298.25" y="448.4626">&#50948;&#48152; 6&#44148; &#51060;&#49345; &#8594;</text><text fill="#000000" font-family="sans-serif" font-size="14" font-weight="700" lengthAdjust="spacing" textLength="39.4798" x="1402.4882" y="448.4626">&#48120;&#51456;&#49688;</text></g><g class="entity" data-qualified-name="GMN13" data-source-line="34" id="ent0014"><path d="M976.23,550.59 L976.23,621.1213 A0,0 0 0 0 976.23,621.1213 L1285.7792,621.1213 A0,0 0 0 0 1285.7792,621.1213 L1285.7792,560.59 L1275.7792,550.59 L1194.05,550.59 L1339.57,462.25 L1186.05,550.59 L976.23,550.59 A0,0 0 0 0 976.23,550.59" fill="#FEFFDD" style="stroke:#181818;stroke-width:0.5;"/><path d="M1275.7792,550.59 L1275.7792,560.59 L1285.7792,560.59 L1275.7792,550.59" fill="#FEFFDD" style="stroke:#181818;stroke-width:0.5;"/><text fill="#000000" font-family="sans-serif" font-size="13" lengthAdjust="spacing" textLength="227.645" x="982.23" y="567.6569">&#50948;&#48152; 0&#44148;&#51012; &#47924;&#51312;&#44148; '&#51456;&#49688;' &#47196; &#50416;&#51648; &#50506;&#45716;&#45796;.</text><text fill="#000000" font-family="sans-serif" font-size="13" lengthAdjust="spacing" textLength="253.0252" x="982.23" y="582.7897">&#44540;&#44144;&#47484; &#47803; &#44151;&#50612;&#49436; 0&#44148;&#51064; &#44163;&#51012; &#51456;&#49688;&#47196; &#54364;&#44592;&#54616;&#47732;</text><text fill="#000000" font-family="sans-serif" font-size="13" lengthAdjust="spacing" textLength="65.2324" x="982.23" y="597.9225">&#49900;&#49324; &#51613;&#48729;&#50640;</text><text fill="#000000" font-family="sans-serif" font-size="13" font-weight="700" lengthAdjust="spacing" textLength="53.4059" x="1051.5947" y="597.9225">&#54728;&#50948; &#50504;&#49900;</text><text fill="#000000" font-family="sans-serif" font-size="13" lengthAdjust="spacing" textLength="69.3647" x="1105.0007" y="597.9225">&#51012; &#49891;&#44172; &#46108;&#45796;</text><text fill="#000000" font-family="sans-serif" font-size="13" lengthAdjust="spacing" textLength="288.5492" x="982.23" y="613.0553">(CCE &#44032; NA &#47484; PASS &#50752; &#44396;&#48516;&#54616;&#45716; &#44163;&#44284; &#44057;&#51008; &#50896;&#52825;).</text></g><!--entity SCR--><g class="entity" data-qualified-name="SCR" data-source-line="40" id="ent0016"><rect fill="#DB6D28" height="52.5938" rx="2.5" ry="2.5" style="stroke:#6E7681;stroke-width:0.5;" width="207.648" x="1321.18" y="559.56"/><text fill="#000000" font-family="sans-serif" font-size="14" lengthAdjust="spacing" textLength="173.0601" x="1331.18" y="582.5551">/compliance.php &#8212; '&#51648;&#44552;'</text><text fill="#000000" font-family="sans-serif" font-size="14" lengthAdjust="spacing" textLength="187.648" x="1331.18" y="598.852">&#53685;&#51228; 4&#51333; &#50836;&#50557; + &#54840;&#49828;&#53944;&#48324; &#44540;&#44144;</text></g><!--entity TICK--><g class="entity" data-qualified-name="TICK" data-source-line="41" id="ent0017"><rect fill="#A371F7" height="52.5938" rx="2.5" ry="2.5" style="stroke:#6E7681;stroke-width:0.5;" width="222.04" x="1675.98" y="220.54"/><text fill="#000000" font-family="sans-serif" font-size="14" lengthAdjust="spacing" textLength="196.2241" x="1685.98" y="243.5351">scheduler &#49324;&#51060;&#46300;&#52852; &#183; &#47588; 1&#48516; &#54001;</text><text fill="#000000" font-family="sans-serif" font-size="14" lengthAdjust="spacing" textLength="202.04" x="1685.98" y="259.832">&#50724;&#45720; &#49828;&#45253;&#49399;&#51060; &#50630;&#51012; &#46412;&#47564; &#54032;&#51221;&#54620;&#45796;</text></g><!--entity SNAP--><g class="entity" data-qualified-name="SNAP" data-source-line="42" id="ent0018"><path d="M1563.35,548.76 C1563.35,538.76 1728.9975,538.76 1728.9975,538.76 C1728.9975,538.76 1894.6449,538.76 1894.6449,548.76 L1894.6449,622.9475 C1894.6449,632.9475 1728.9975,632.9475 1728.9975,632.9475 C1728.9975,632.9475 1563.35,632.9475 1563.35,622.9475 L1563.35,548.76" fill="#238636" style="stroke:#181818;stroke-width:0.5;"/><path d="M1563.35,548.76 C1563.35,558.76 1728.9975,558.76 1728.9975,558.76 C1728.9975,558.76 1894.6449,558.76 1894.6449,548.76" fill="none" style="stroke:#181818;stroke-width:0.5;"/><text fill="#000000" font-family="sans-serif" font-size="14" lengthAdjust="spacing" textLength="240.7708" x="1573.35" y="575.7551">tb_compliance_snapshot (&#54616;&#47336; 1&#44148;)</text><text fill="#000000" font-family="sans-serif" font-size="14" lengthAdjust="spacing" textLength="241.2744" x="1573.35" y="592.052">&#9492; tb_compliance_snapshot_control</text><text fill="#000000" font-family="sans-serif" font-size="14" lengthAdjust="spacing" textLength="297.9443" x="1586.7006" y="608.3489">control_key &#183; status_label &#183; violation_count</text><text fill="#000000" font-family="sans-serif" font-size="14" lengthAdjust="spacing" textLength="234.5342" x="1586.7006" y="624.6457">unjudged_count &#183; evidence(JSON)</text></g><g class="entity" data-qualified-name="GMN19" data-source-line="44" id="ent0020"><path d="M1570.94,693.95 L1570.94,749.3484 A0,0 0 0 0 1570.94,749.3484 L1887.0598,749.3484 A0,0 0 0 0 1887.0598,749.3484 L1887.0598,703.95 L1877.0598,693.95 L1733,693.95 L1729,633.28 L1725,693.95 L1570.94,693.95 A0,0 0 0 0 1570.94,693.95" fill="#FEFFDD" style="stroke:#181818;stroke-width:0.5;"/><path d="M1877.0598,693.95 L1877.0598,703.95 L1887.0598,703.95 L1877.0598,693.95" fill="#FEFFDD" style="stroke:#181818;stroke-width:0.5;"/><text fill="#000000" font-family="sans-serif" font-size="13" lengthAdjust="spacing" textLength="282.0214" x="1576.94" y="711.0169">FK &#47196; &#50896;&#48376; &#54665;&#50640; &#47588;&#45804;&#51648; &#50506;&#45716;&#45796; &#8212; &#50896;&#48376;&#51060; &#51648;&#50892;&#51256;&#46020;</text><text fill="#000000" font-family="sans-serif" font-size="13" lengthAdjust="spacing" textLength="295.1198" x="1576.94" y="726.1497">&#51613;&#51201;&#51008; &#45224;&#50500;&#50556; &#54620;&#45796;. &#44540;&#44144;&#45716; evidence JSON &#50640; &#45812;&#46104;</text><text fill="#000000" font-family="sans-serif" font-size="13" lengthAdjust="spacing" textLength="250.7655" x="1576.94" y="741.2825">&#52572;&#49548; &#49885;&#48324;&#51088;&#47564;(&#50896;&#47928; &#51204;&#52404;&#47484; &#48373;&#49324;&#54616;&#51648; &#50506;&#45716;&#45796;).</text></g><!--link F to P1--><g class="link" data-entity-1="ent0002" data-entity-2="ent0008" data-link-type="dependency" data-source-line="56" id="lnk27"><path d="M866.22,102.94 C898.73,133.34 945.1784,176.7845 979.0584,208.4745" fill="none" id="F-to-P1" style="stroke:#181818;stroke-width:1;"/><polygon fill="#181818" points="982.71,211.89,978.8696,202.8208,979.0584,208.4745,973.4047,208.6633,982.71,211.89" style="stroke:#181818;stroke-width:1;stroke-linejoin:miter;stroke-miterlimit:10;"/></g><!--link H to P1--><g class="link" data-entity-1="ent0003" data-entity-2="ent0008" data-link-type="dependency" data-source-line="57" id="lnk28"><path d="M1076.81,102.94 C1064.51,133.34 1047.4251,175.5649 1034.6051,207.2549" fill="none" id="H-to-P1" style="stroke:#181818;stroke-width:1;"/><polygon fill="#181818" points="1032.73,211.89,1039.8132,205.0469,1034.6051,207.2549,1032.3971,202.0468,1032.73,211.89" style="stroke:#181818;stroke-width:1;stroke-linejoin:miter;stroke-miterlimit:10;"/></g><!--link H to P2--><g class="link" data-entity-1="ent0003" data-entity-2="ent0009" data-link-type="dependency" data-source-line="58" id="lnk29"><path d="M1118.96,102.94 C1149.18,133.34 1192.2351,176.6539 1223.7351,208.3439" fill="none" id="H-to-P2" style="stroke:#181818;stroke-width:1;"/><polygon fill="#181818" points="1227.26,211.89,1223.7521,202.687,1223.7351,208.3439,1218.0783,208.3268,1227.26,211.89" style="stroke:#181818;stroke-width:1;stroke-linejoin:miter;stroke-miterlimit:10;"/></g><!--link C to P3--><g class="link" data-entity-1="ent0004" data-entity-2="ent0010" data-link-type="dependency" data-source-line="59" id="lnk30"><path d="M637.34,102.92 C657.03,114.29 678.1,128.4 695,144.39 C715.74,164 731.1451,186.5644 743.5251,207.7244" fill="none" id="C-to-P3" style="stroke:#181818;stroke-width:1;"/><polygon fill="#181818" points="746.05,212.04,744.9576,202.2519,743.5251,207.7244,738.0526,206.2918,746.05,212.04" style="stroke:#181818;stroke-width:1;stroke-linejoin:miter;stroke-miterlimit:10;"/></g><!--link A to P4--><g class="link" data-entity-1="ent0005" data-entity-2="ent0011" data-link-type="dependency" data-source-line="60" id="lnk31"><path d="M1394.17,102.94 C1421.58,133.34 1460.482,176.4864 1489.052,208.1764" fill="none" id="A-to-P4" style="stroke:#181818;stroke-width:1;"/><polygon fill="#181818" points="1492.4,211.89,1489.3445,202.5271,1489.052,208.1764,1483.4027,207.8839,1492.4,211.89" style="stroke:#181818;stroke-width:1;stroke-linejoin:miter;stroke-miterlimit:10;"/></g><!--link POL to P1--><g class="link" data-entity-1="ent0006" data-entity-2="ent0008" data-link-type="dependency" data-source-line="62" id="lnk32"><path d="M1568.11,114.87 C1550.66,119.25 1532.99,123.29 1516,126.59 C1348.29,159.14 1294.53,110.95 1134,169.39 C1107.19,179.15 1084.4678,193.3604 1063.5278,208.9804" fill="none" id="POL-to-P1" style="stroke:#181818;stroke-width:1;"/><polygon fill="#181818" points="1059.52,211.97,1069.1257,209.795,1063.5278,208.9804,1064.3424,203.3825,1059.52,211.97" style="stroke:#181818;stroke-width:1;stroke-linejoin:miter;stroke-miterlimit:10;"/></g><!--link POL to P2--><g class="link" data-entity-1="ent0006" data-entity-2="ent0009" data-link-type="dependency" data-source-line="63" id="lnk33"><path d="M1562.59,114.88 C1485.83,137.27 1404.2,161.74 1387,169.39 C1360.58,181.14 1337.1502,194.7129 1314.5002,209.2229" fill="none" id="POL-to-P2" style="stroke:#181818;stroke-width:1;"/><polygon fill="#181818" points="1310.29,211.92,1320.026,210.4333,1314.5002,209.2229,1315.7106,203.6971,1310.29,211.92" style="stroke:#181818;stroke-width:1;stroke-linejoin:miter;stroke-miterlimit:10;"/></g><!--link POL to P4--><g class="link" data-entity-1="ent0006" data-entity-2="ent0011" data-link-type="dependency" data-source-line="64" id="lnk34"><path d="M1663.97,114.68 C1631.83,144.59 1592.811,180.8845 1562.861,208.7445" fill="none" id="POL-to-P4" style="stroke:#181818;stroke-width:1;"/><polygon fill="#181818" points="1559.2,212.15,1568.5141,208.9489,1562.861,208.7445,1563.0653,203.0913,1559.2,212.15" style="stroke:#181818;stroke-width:1;stroke-linejoin:miter;stroke-miterlimit:10;"/></g><!--link POL to VOCAB--><g class="link" data-entity-1="ent0006" data-entity-2="ent0012" data-link-type="dependency" data-source-line="65" id="lnk35"><path d="M1854.94,114.88 C1879.17,128.4 1901.19,146.14 1916,169.39 C1948.44,220.33 1953.99,258.33 1916,305.28 C1872.17,359.44 1696.5653,386.3138 1567.1253,399.2238" fill="none" id="POL-to-VOCAB" style="stroke:#181818;stroke-width:1;"/><polygon fill="#181818" points="1562.15,399.72,1571.5025,402.807,1567.1253,399.2238,1570.7086,394.8465,1562.15,399.72" style="stroke:#181818;stroke-width:1;stroke-linejoin:miter;stroke-miterlimit:10;"/><text fill="#000000" font-family="sans-serif" font-size="13" lengthAdjust="spacing" textLength="123.4769" x="1943.45" y="251.3969">&#52983;&#46972;&#51064;(partial_max)</text></g><!--link P1 to VOCAB--><g class="link" data-entity-1="ent0008" data-entity-2="ent0012" data-link-type="dependency" data-source-line="67" id="lnk36"><path d="M1083.45,281.69 C1099.77,289.8 1117.38,298.17 1134,305.28 C1183.49,326.46 1234.1245,345.4475 1283.1645,362.7375" fill="none" id="P1-to-VOCAB" style="stroke:#181818;stroke-width:1;"/><polygon fill="#181818" points="1287.88,364.4,1280.7221,357.635,1283.1645,362.7375,1278.0621,365.1798,1287.88,364.4" style="stroke:#181818;stroke-width:1;stroke-linejoin:miter;stroke-miterlimit:10;"/></g><!--link P2 to VOCAB--><g class="link" data-entity-1="ent0009" data-entity-2="ent0012" data-link-type="dependency" data-source-line="68" id="lnk37"><path d="M1294.98,281.44 C1317.87,304.08 1344.9252,330.8238 1370.6852,356.3038" fill="none" id="P2-to-VOCAB" style="stroke:#181818;stroke-width:1;"/><polygon fill="#181818" points="1374.24,359.82,1370.6543,350.6471,1370.6852,356.3038,1365.0284,356.3347,1374.24,359.82" style="stroke:#181818;stroke-width:1;stroke-linejoin:miter;stroke-miterlimit:10;"/></g><!--link P3 to VOCAB--><g class="link" data-entity-1="ent0010" data-entity-2="ent0012" data-link-type="dependency" data-source-line="69" id="lnk38"><path d="M838.97,281.68 C859.75,290.2 882.5,298.77 904,305.28 C1031.82,343.96 1176.7259,371.5808 1282.8259,388.9808" fill="none" id="P3-to-VOCAB" style="stroke:#181818;stroke-width:1;"/><polygon fill="#181818" points="1287.76,389.79,1279.526,384.3862,1282.8259,388.9808,1278.2313,392.2808,1287.76,389.79" style="stroke:#181818;stroke-width:1;stroke-linejoin:miter;stroke-miterlimit:10;"/></g><!--link P4 to VOCAB--><g class="link" data-entity-1="ent0011" data-entity-2="ent0012" data-link-type="dependency" data-source-line="70" id="lnk39"><path d="M1502.69,281.44 C1489.01,304.08 1473.3163,330.0609 1457.9163,355.5409" fill="none" id="P4-to-VOCAB" style="stroke:#181818;stroke-width:1;"/><polygon fill="#181818" points="1455.33,359.82,1463.4086,354.1866,1457.9163,355.5409,1456.562,350.0485,1455.33,359.82" style="stroke:#181818;stroke-width:1;stroke-linejoin:miter;stroke-miterlimit:10;"/></g><!--link VOCAB to SCR--><g class="link" data-entity-1="ent0012" data-entity-2="ent0016" data-link-type="dependency" data-source-line="72" id="lnk40"><path d="M1425,462.01 C1425,493.92 1425,528.93 1425,554.45" fill="none" id="VOCAB-to-SCR" style="stroke:#181818;stroke-width:1;"/><polygon fill="#181818" points="1425,559.45,1429,550.45,1425,554.45,1421,550.45,1425,559.45" style="stroke:#181818;stroke-width:1;stroke-linejoin:miter;stroke-miterlimit:10;"/><text fill="#000000" font-family="sans-serif" font-size="13" lengthAdjust="spacing" textLength="186.6693" x="1426" y="504.8269">&#54868;&#47732;&#51008; &#44057;&#51008; &#54632;&#49688;&#47196; '&#51648;&#44552;' &#51012; &#47116;&#45908;</text></g><!--link TICK to VOCAB--><g class="link" data-entity-1="ent0017" data-entity-2="ent0012" data-link-type="dependency" data-source-line="73" id="lnk41"><path d="M1729.64,273.53 C1678,296.67 1605.2129,329.2755 1541.3829,357.8755" fill="none" id="TICK-to-VOCAB" style="stroke:#181818;stroke-width:1;"/><polygon fill="#181818" points="1536.82,359.92,1546.6688,359.8903,1541.3829,357.8755,1543.3976,352.5896,1536.82,359.92" style="stroke:#181818;stroke-width:1;stroke-linejoin:miter;stroke-miterlimit:10;"/><text fill="#000000" font-family="sans-serif" font-size="13" lengthAdjust="spacing" textLength="130.6418" x="1639.42" y="326.3469">&#44057;&#51008; &#54632;&#49688; &#183; &#44057;&#51008; &#44592;&#51456;&#44050;</text></g><!--link VOCAB to SNAP--><g class="link" data-entity-1="ent0012" data-entity-2="ent0018" data-link-type="dependency" data-source-line="74" id="lnk42"><path d="M1562.24,461.15 C1582.48,470.3 1602.67,480.55 1621,491.76 C1642.43,504.87 1660.1268,518.8827 1678.1668,535.0527" fill="none" id="VOCAB-to-SNAP" style="stroke:#181818;stroke-width:1;"/><polygon fill="#181818" points="1681.89,538.39,1677.858,529.4043,1678.1668,535.0527,1672.5183,535.3615,1681.89,538.39" style="stroke:#181818;stroke-width:1;stroke-linejoin:miter;stroke-miterlimit:10;"/><text fill="#000000" font-family="sans-serif" font-size="13" lengthAdjust="spacing" textLength="61.2834" x="1644.55" y="504.8269">&#53685;&#51228;&#48324; 1&#54665;</text></g><!--link C to CM--><g class="link" data-entity-1="ent0004" data-entity-2="ent0023" data-link-type="dependency" data-source-line="76" id="lnk43"><path d="M554.05,102.94 C531,134.6 497.8933,180.0681 474.8533,211.7081" fill="none" id="C-to-CM" style="stroke:#181818;stroke-width:1;"/><polygon fill="#181818" points="471.91,215.75,480.4414,210.8292,474.8533,211.7081,473.9744,206.1199,471.91,215.75" style="stroke:#181818;stroke-width:1;stroke-linejoin:miter;stroke-miterlimit:10;"/><text fill="#000000" font-family="sans-serif" font-size="13" lengthAdjust="spacing" textLength="164.4892" x="521.54" y="157.4569">rule_code = code (&#51088;&#50672;&#53412;)</text></g><!--link CM to CMAP--><g class="link" data-entity-1="ent0023" data-entity-2="ent0026" data-link-type="dependency" data-source-line="77" id="lnk44"><path d="M450,277.96 C450,308.56 450,350.43 450,379.33" fill="none" id="CM-to-CMAP" style="stroke:#181818;stroke-width:1;"/><polygon fill="#181818" points="450,384.33,454,375.33,450,379.33,446,375.33,450,384.33" style="stroke:#181818;stroke-width:1;stroke-linejoin:miter;stroke-miterlimit:10;"/></g><!--link CM to KU--><g class="link" data-entity-1="ent0023" data-entity-2="ent0025" data-link-type="dependency" data-source-line="78" id="lnk45"><path d="M394.46,277.96 C343.12,305.81 271.315,344.7558 217.875,373.7458" fill="none" id="CM-to-KU" style="stroke:#181818;stroke-width:1;"/><polygon fill="#181818" points="213.48,376.13,223.2983,375.3545,217.875,373.7458,219.4836,368.3225,213.48,376.13" style="stroke:#181818;stroke-width:1;stroke-linejoin:miter;stroke-miterlimit:10;"/><text fill="#000000" font-family="sans-serif" font-size="13" lengthAdjust="spacing" textLength="87.596" x="328.28" y="326.3469">&#48516;&#51088;(&#45934;&#45716; &#54637;&#47785;)</text></g><!--link CC to KU--><g class="link" data-entity-1="ent0024" data-entity-2="ent0025" data-link-type="dependency" data-source-line="79" id="lnk46"><path d="M151,277.96 C151,305.81 151,342.14 151,371.13" fill="none" id="CC-to-KU" style="stroke:#181818;stroke-width:1;"/><polygon fill="#181818" points="151,376.13,155,367.13,151,371.13,147,367.13,151,376.13" style="stroke:#181818;stroke-width:1;stroke-linejoin:miter;stroke-miterlimit:10;"/><text fill="#000000" font-family="sans-serif" font-size="13" lengthAdjust="spacing" textLength="116.1683" x="152" y="326.3469">&#48516;&#47784;(&#44032;&#51060;&#46300; &#51204; &#54637;&#47785;)</text></g><!--link P3 to CMAP--><g class="link" data-entity-1="ent0010" data-entity-2="ent0026" data-link-type="dependency" data-source-line="80" id="lnk47"><path d="M695.52,281.67 C675.34,291.75 653.24,302.88 633,313.28 C586.98,336.94 539.2404,362.2345 502.4104,381.9045" fill="none" id="P3-to-CMAP" style="stroke:#181818;stroke-width:1;stroke-dasharray:7,7;"/><polygon fill="#181818" points="498,384.26,507.8231,383.5484,502.4104,381.9045,504.0543,376.4918,498,384.26" style="stroke:#181818;stroke-width:1;stroke-linejoin:miter;stroke-miterlimit:10;"/><text fill="#000000" font-family="sans-serif" font-size="13" lengthAdjust="spacing" textLength="210.0223" x="634" y="326.3469">&#44057;&#51008; CCE &#44208;&#44284;&#47484; &#44592;&#51456; &#50616;&#50612;&#47196; &#50734;&#44596; &#44163;</text></g><?plantuml-src ZLTjJnjN5lu-l-8eVB2XO6Bp4eBKbLohD2m9eBhf9oGqs0DuOyQMPw1RLLqPc20MN0KQEvZ4i4xZ1X9vMsDCRGJHIloKV9nx_H_sd7l7PWofTf6Yt9avzvnxd_ESvnnxO6KvhlUf2vfk0h-eDRCPTd393shyHODlbO0Vxh1d-ytC3Y_cu6Cw2tmppuzsMPbiWB-eiHSNTZK37bvAuwT-zdj3hZnWLzB0TlBsQL7OPRDyRmVusmDUNEM5I_Qw06pjc6rbqKxn0F-GPSyBes1egHKjrM-a8lsHn58o7bFrYEPBBYQz_CZYXqzvSQSRhkfm_R4_cOZ78jyB6xjHmV1svUUhkdDc3Dqiv24Sdlgc6yF8FzVc7vAg6LdiLGr3CtiDBH99wFEnXLuL5ykw-QFmsjmuuyK23F9VdjwCRUXgqbXCcFA4ud8KfhcVPUzget3Z3hIv_qdCKFkMsuyOq4mbuhDBQZ8PqnTklgTdnTDsYIYaxSPcjtrw2PWVVfdc9Olzg-njvlBipJ7uxPEQ0t8t9Q2dnwxiyuCqD7F7c9MU7lRh9R0_qkpN1jikYOnAe2YTR7S7M3M3IupK3Yb2oRHHogs2IDrs2LtWVsVymC94rX1vuDi5VhZRp1NmgqzHZ2SnFQccr2L8QH5JrHVY6loW4FvVg94d2oa4E1fAn1Cfw9eNV_9R8XNLKixxOUtUy8XV-T7bAwgQwfngQ7_cuzhIM5IZYUyGKvXNuuQcA4dSWao7EsqIIqhZVNzljAxKp100pQmbwg0XxdnYyLSPX2SBTdNz3gW6X5CHvowjyy0TSsvsFgP7CU2CpevAl9ftiFNoxR9TMMNFhAiwFolmsYQmIi6kbWan_D0jN8xTThUOC4mY0owDYAhFw7olObShV7srkLwW3rFX_l5fMb1A_x3alO3lbV5PE7rmssaaebsVCnJw4WRksvK2O67PrJG_oCDqC1pk7mkEF-oV30edeK-VRDOfaXdTFhL4hHqqMBNKt2YojsKlFomYKQ_gnd8qWTLO84vTrH5ef8zTHrmRyjf1pAvoJP0xdoniaQTsSOjgdj733uEZCF7bj-0VuWUNX4Bew_5lnaF1Xp1mrtdpOFoh1p1CJmZUHLtcT1Jy_nYYGd5G4u95riEYUb3yrbUXhMGpkfSNBJGLQT1CanZbA1X_NU57g-pK4gjYhfUm5wMmlefRKTsW-Qp6AYVohjDJ3w7BFpyyhysvsUZMM9VMT5GdHbZV526F2gW1m7DRGbcFTX5yTfG1MNOoNsRS8QSBru-xHNHspC_pTYsD2PhHnyEFmdtJ4F3vx_f6e1_6mrCGz8tuHWIqW3J5qaUt0WgytdaU7DuOyZR-sp5U8uzoxBI6T-9hf0W724uxbD-7mTgHXdptCIdvKhlMi3e4WVdU1Z_8m6SElTacVlyWGmPkX_m5A5vkazHdgzHyYX2zhF7yQkS5_JDw9_TzASrOZfkVUuZf7WT86MJWTf0tu73y5dX3hXlTzmLcz9M5Lc7C_cqvkh24dTNmTcCdBVErCd_vJiOOl47xpdObqkz5JzVLC6kOghbiT2Da1OjLyd2NoFgPGn2ayYRflGFTnusVKVebVtjw_iUMmythBHsVN3kTWf56xh9nsRYhnp5irL1FZxZrjrEXu1VG5PqRZWP653rXQZ2NCCt44YJcvKT4tdLMqLlADIGVkVQq9WjH1iyhJXbWaOb-0s3NB-sJYkXmxo_0FgaZcjYl75SD4czHIC8DEMdk5h1OgNLYlyF8svGYQdRiV9-c5SHZRnFF0u9UPKIKjc-_eOc7xL2zuIulQIW1EHa4Yato2Nm_3VOPoh15thT4uw16wdHZ_cg7d-zt-nHDZmBXqC65crC3wO17DdxFZEvM2FuootCVAALv6jUQMmtI8ec3x5EXhzjuko8OaKKjkXpNKa2SnFxtlC3FQwAH79N0ZyU6vlQ9g4wsbQT9Wwq_vUjrqGs9OfYNN4R8ZY2CItnGW2UWInsuvv-_ftGs7XUNdR49t7CBKljZDWkVjfnrvg4PNSnlScPwedrFPvQLCHjNvxGuFQ_44d7LZ2NqMQS_uPPbdOfHYyfNPAMjnA8QXl3-DJmrAVKvF1cSXgx0mCZmmF1DUj8tpFROXAJVgnrsYiF2YtyIJn0qXjnnyr5E5i9AW7QKnX625niu113Jd7agJJCmprayT-a8kA_5OkHCwuH09mGHQBk68pKvm35Y8-FeApMGeuoNefKRAC0MhzP45PoUONeHuOwJTR2ktOHaSqLdOhghPEt_P86jNegvvrHCT-vkXEIkDrWcZSQzOdvwQs4j4HzmAqlljCWmzjsdfgGR8w-SGkGF024S4-FX83mMgYf4jXyc0-4nsTeU_Rcx2BwC9z0TdXOLXFg1LOB7VOxddfvx0HfqFaTrizZxOqUJGg6RQk-UqEdIRG_yeiIg5ie_ueaZta-_KP82VdAwOW0xj-XvY9xnw_acy7EHUzoA4pfRQ-c0u0F-a-CrJLmuqn283cWJZw7hlZQithtLX_wV7mjjWP0P9MusSxjavRodqSHgE6WYfx4FZK5Vtr-edp-uiGWe8RaOK89oCQWeDCKuPkrbu7evs5vAkH-5zk3bnS7SZAbq_hzteoF_jPao7N0_3BWV1bqFYdHABqZRHjiefg7ZbmxHkAMP8FIgc64_PHKXJ-x3TUmYc9mNxMdJ7P7qOTG1afJMZmAWE1Y57k6d58eg4ZAg8St4VrwQXFOgpRLIju8MqX1HTzQOwr7Y8rfv7K8rS_zcxz-XTQZ30XdhnIuZnPgAl6s8OFbyqktrVKHJgbQmvv0IE5oW7_NuKvpqA_-RtQWH6vN_0W00?></g></svg>